<svg id="website-gears" xmlns="http://www.w3.org/2000/svg" viewBox="0 0 385.3 379.05"><defs><style>.cls-1{fill:#998b6e;}</style></defs><title>gear-5-light-brown</title><g id="light-brown"><g id="gear-5-light-brown"><g id="svg_3" data-name="svg 3"><path id="svg_4" data-name="svg 4" class="cls-1" d="M99.92,57.83l14.77,42.91h0a152,152,0,0,0-21.25,20.39v0l-43.1-15.73L33.53,132.91l34.73,29.36h0.07A148.55,148.55,0,0,0,60,190.2L60,190.13,14.16,198l-0.83,31.8,45.43,8a141.17,141.17,0,0,0,6.88,27.87h0L29.34,294.86l15.43,27.58,43.92-15.59v0a141.16,141.16,0,0,0,20.15,20.45l-17,42.88,27.54,15.93L150,351.14l0-.09a148.53,148.53,0,0,0,28.14,7.55l0,0.06,6.85,45,32.27,0.05,9.15-45v0a152,152,0,0,0,28.5-7.44v0l28.84,35L312,370.45l-14.77-42.91h0a152,152,0,0,0,21.27-20.37l43.12,15.71,16.84-27.53L343.7,266a148.59,148.59,0,0,0,8.3-27.86l45.83-7.85,0.8-31.79-45.41-8a141.2,141.2,0,0,0-6.86-27.88l36.28-29.24-15.43-27.58L323.3,121.41A141.2,141.2,0,0,0,303.13,101l17-42.87L292.58,42.19l-30.67,35a148.57,148.57,0,0,0-28.08-7.51l-6.82-45-32.27-.05-9.17,45A152,152,0,0,0,157.09,77v0L128.26,42,99.92,57.83h0ZM151.65,117c55.19-30.87,124.26-12.43,154.28,41.22s9.59,122.17-45.59,153S136.1,323.68,106.08,270,96.46,147.87,151.65,117Z" transform="translate(-13.33 -24.61)"/></g><g id="Layer_8_copy_3" data-name="Layer 8 copy 3"><path class="cls-1" d="M195.89,249.28l-3.18,93.8,20,0.68,3.2-94.44A36.39,36.39,0,0,1,195.89,249.28Z" transform="translate(-13.33 -24.61)"/><path class="cls-1" d="M218.26,179.68L221.88,73l-20-.68-3.59,106A36.49,36.49,0,0,1,218.26,179.68Z" transform="translate(-13.33 -24.61)"/><path class="cls-1" d="M231.13,240.65l93.93,52.67,9.78-17.45-93.5-52.43A36.6,36.6,0,0,1,231.13,240.65Z" transform="translate(-13.33 -24.61)"/><path class="cls-1" d="M87.38,137.12L77.6,154.56l92.61,51.93a36.52,36.52,0,0,1,9.39-17.66Z" transform="translate(-13.33 -24.61)"/><path class="cls-1" d="M334.68,157.85l-9.45-17.62-92.12,49.41a36.48,36.48,0,0,1,8.85,18Z" transform="translate(-13.33 -24.61)"/><path class="cls-1" d="M170.54,223.19L70.09,277.06l9.45,17.63,101.09-54.22A36.59,36.59,0,0,1,170.54,223.19Z" transform="translate(-13.33 -24.61)"/><path class="cls-1" d="M180.64,240.47a36.58,36.58,0,0,0,15.26,8.81L196.48,232Z" transform="translate(-13.33 -24.61)"/><path class="cls-1" d="M170.21,206.49a36.58,36.58,0,0,0,.33,16.7l15.05-8.07Z" transform="translate(-13.33 -24.61)"/><path class="cls-1" d="M216.47,232.43l-0.57,16.9a36.57,36.57,0,0,0,15.23-8.68Z" transform="translate(-13.33 -24.61)"/><path class="cls-1" d="M233.11,189.63a36.69,36.69,0,0,0-14.85-9.95l-0.62,18.24Z" transform="translate(-13.33 -24.61)"/><path class="cls-1" d="M198.3,178.37a36.56,36.56,0,0,0-18.69,10.45l18,10.09Z" transform="translate(-13.33 -24.61)"/><path class="cls-1" d="M241.35,223.45a36.38,36.38,0,0,0,.61-15.87l-14.77,7.92Z" transform="translate(-13.33 -24.61)"/><path class="cls-1" d="M198.44,199.39a16.44,16.44,0,0,1,15.77.38l3.43-1.84,0.62-18.24a36.49,36.49,0,0,0-20-1.31l-0.7,20.54Z" transform="translate(-13.33 -24.61)"/><path class="cls-1" d="M211.61,229.7a16.27,16.27,0,0,1-11,.08L196.48,232l-0.59,17.31a36.39,36.39,0,0,0,20,0l0.57-16.9Z" transform="translate(-13.33 -24.61)"/><path class="cls-1" d="M222,218.28a16.59,16.59,0,0,1-5.34,8.5l-0.19,5.65,14.66,8.22a36.6,36.6,0,0,0,10.22-17.2l-14.17-7.94Z" transform="translate(-13.33 -24.61)"/><path class="cls-1" d="M189.46,213a16.57,16.57,0,0,1,8.11-13.17l0-1-18-10.09a36.52,36.52,0,0,0-9.39,17.66l15.38,8.63Z" transform="translate(-13.33 -24.61)"/><path class="cls-1" d="M197.6,198.92l0,1c0.29-.17.57-0.33,0.87-0.49Z" transform="translate(-13.33 -24.61)"/><path class="cls-1" d="M211.61,229.7l4.87,2.73,0.19-5.65A16.57,16.57,0,0,1,211.61,229.7Z" transform="translate(-13.33 -24.61)"/><path class="cls-1" d="M196.62,227.8a16.61,16.61,0,0,1-6.89-10.36l-4.14-2.32-15.05,8.07a36.59,36.59,0,0,0,10.1,17.28l15.84-8.5Z" transform="translate(-13.33 -24.61)"/><path class="cls-1" d="M217.5,202.24a16.52,16.52,0,0,1,5,10.64l4.69,2.63L242,207.58a36.48,36.48,0,0,0-8.85-18l-15.47,8.29Z" transform="translate(-13.33 -24.61)"/><path class="cls-1" d="M196.48,232l4.08-2.19a16.53,16.53,0,0,1-3.94-2Z" transform="translate(-13.33 -24.61)"/><path class="cls-1" d="M217.64,197.92l-3.43,1.84a16.66,16.66,0,0,1,3.29,2.47Z" transform="translate(-13.33 -24.61)"/><path class="cls-1" d="M222,218.28l5.17-2.77-4.69-2.63c0,0.42.06,0.83,0.06,1.26A16.49,16.49,0,0,1,222,218.28Z" transform="translate(-13.33 -24.61)"/><path class="cls-1" d="M189.46,213l-3.86,2.07,4.14,2.32a16.59,16.59,0,0,1-.33-3.31C189.4,213.76,189.43,213.4,189.46,213Z" transform="translate(-13.33 -24.61)"/></g></g></g></svg>