<?xml version="1.0" encoding="utf-8"?>
<!-- Generator: Adobe Illustrator 19.2.0, SVG Export Plug-In . SVG Version: 6.00 Build 0)  -->
<svg version="1.1" xmlns="http://www.w3.org/2000/svg" xmlns:xlink="http://www.w3.org/1999/xlink" x="0px" y="0px"
	 viewBox="0 0 412 428.3" style="enable-background:new 0 0 412 428.3;" xml:space="preserve">
<style type="text/css">
	.st0{display:none;}
	.st1{display:inline;}
	.st2{display:inline;fill:none;stroke:#000000;stroke-width:40;stroke-miterlimit:10;}
	.st3{display:inline;fill:none;stroke:#000000;stroke-width:20;stroke-miterlimit:10;}
	.st4{fill:#010101;}
	.st5{fill:#4C4129;}
	.st6{display:none;fill:#4C4129;}
	.st7{display:inline;fill:#4C4129;}
	.st8{display:inline;fill:#4C412A;}
	.st9{fill:#4C412B;}
	.st10{fill:#4C412C;}
	.st11{fill:#998B6E;}
	.st12{display:none;fill:#998B6E;}
	.st13{display:inline;fill:#998B6E;}
	.st14{fill:#2F3A4C;}
	.st15{display:none;fill:#2F3A4C;}
	.st16{display:inline;fill:#2F3A4C;}
	.st17{fill:#6E7E99;}
	.st18{display:none;fill:#6E7E99;}
	.st19{display:inline;fill:#6E7E99;}
	.st20{fill:#BCCBE4;}
	.st21{display:none;fill:#BCCBE4;}
	.st22{display:inline;fill:#BCCBE3;}
	.st23{display:inline;fill:#BCCBE2;}
	.st24{fill:#BCCBE1;}
	.st25{fill:#BCCBE0;}
</style>
<g id="gear-temp" class="st0">
	<g id="Layer_1" class="st1">
		<path d="M387.5,236.4l-10.5-2c-4.4-0.8-7.5-4.7-7.3-9.2c0.1-2.1,0.1-4.2,0.1-6.2c0-2.1,0-4.1-0.1-6.2c-0.2-4.5,2.9-8.4,7.3-9.2
			l10.5-1.9c2.4-0.4,4-2.8,3.6-5.2l-3.4-19.5c-0.4-2.1-2.2-3.6-5-3.6c0,0-0.1,0-0.1,0L372,175c-0.5,0.1-1,0.1-1.5,0.1
			c-3.8,0-7.3-2.5-8.5-6.2c-1.3-4-2.7-7.9-4.3-11.8c-1.7-4.1-0.1-8.9,3.8-11.1l9.2-5.4c2.1-1.3,2.8-4,1.6-6.1l-10-17.2
			c-0.9-1.6-2.6-2.2-3.9-2.2c-0.8,0-1.5,0.2-2.2,0.6l-9.3,5.3c-1.4,0.8-2.9,1.2-4.4,1.2c-2.7,0-5.4-1.2-7.1-3.5
			c-2.5-3.2-5.2-6.4-8-9.5c-3-3.3-3.1-8.3-0.3-11.8l6.8-8.2c1.6-1.9,1.3-4.7-0.5-6.3L318.1,70c-1-0.9-2.1-1-2.9-1
			c-1.3,0-2.5,0.6-3.4,1.6l-6.9,8.1c-1.7,2.1-4.3,3.1-6.8,3.1c-1.6,0-3.3-0.4-4.8-1.4c-3.6-2.2-7.2-4.3-10.9-6.3
			c-3.9-2.1-5.7-6.7-4.2-10.9l3.6-10c0.8-2.3-0.4-4.9-2.7-5.7l-18.7-6.8c-0.5-0.2-1-0.3-1.5-0.3c-1.9,0-3.5,1.2-4.2,2.9l-3.7,10
			c-1.3,3.6-4.7,5.8-8.4,5.8c-0.7,0-1.3-0.1-1.9-0.2c-4.1-0.9-8.2-1.6-12.3-2.2c-4.4-0.6-7.7-4.3-7.8-8.8l-0.1-10.7
			c0-2.5-2-4.4-4.5-4.4h-19.8c-2.5,0-4.4,2-4.5,4.4L191.6,48c0,4.4-3.3,8.2-7.8,8.8c-4.1,0.6-8.3,1.3-12.3,2.2
			c-0.7,0.2-1.3,0.2-1.9,0.2c-3.7,0-7-2.3-8.4-5.8l-3.7-10c-0.7-1.8-2.3-2.9-4.2-2.9c-0.5,0-1.1,0.1-1.5,0.3L133,47.5
			c-2.3,0.8-3.5,3.4-2.7,5.7l3.6,10c1.5,4.2-0.3,8.8-4.3,10.9c-3.7,2-7.3,4.1-10.9,6.3c-1.5,0.9-3.1,1.4-4.8,1.4
			c-2.5,0-5.1-1.1-6.8-3.1l-6.9-8.1c-0.9-1-2.1-1.6-3.4-1.6c-0.7,0-1.8,0.2-2.9,1.1L78.8,82.8c-1.9,1.6-2.1,4.4-0.6,6.3l6.8,8.2
			c2.8,3.4,2.7,8.4-0.3,11.7c-2.8,3.1-5.5,6.3-8.1,9.6c-1.7,2.3-4.4,3.5-7.1,3.5c-1.5,0-3-0.4-4.4-1.2l-9.3-5.3
			c-0.6-0.4-1.4-0.6-2.1-0.6c-1.6,0-3.1,0.8-3.9,2.3l-9.9,17.1c-1.2,2.1-0.5,4.9,1.6,6.1l9.2,5.4c3.8,2.2,5.4,7,3.7,11.1
			c-1.5,3.9-3,7.8-4.3,11.8c-1.2,3.8-4.7,6.2-8.5,6.2c-0.5,0-1-0.1-1.5-0.1l-11.2-1.8c-2.2,0-4,1.5-4.4,3.7L21,196.5
			c-0.4,2.4,1.2,4.7,3.6,5.2l10.5,1.9c4.3,0.8,7.5,4.7,7.3,9.1c-0.1,2.1-0.1,4.2-0.1,6.3c0,2.1,0,4.2,0.1,6.3c0.2,4.4-3,8.3-7.3,9.1
			l-10.5,1.9c-2.4,0.4-4,2.8-3.6,5.2l3.5,19.6c0.4,2.1,2.2,3.6,5,3.6c0.1,0,0.1,0,0.1,0l10.5-1.8c0.5-0.1,1-0.1,1.5-0.1
			c3.8,0,7.3,2.5,8.5,6.2c1.3,3.9,2.7,7.9,4.3,11.8c1.7,4.1,0.1,8.8-3.7,11.1l-9.2,5.4c-2.1,1.3-2.9,4-1.6,6.1l9.9,17.2
			c0.8,1.4,2.2,2.2,3.9,2.2c0.8,0,1.5-0.2,2.2-0.6l9.3-5.3c1.4-0.8,2.9-1.2,4.4-1.2c2.7,0,5.3,1.2,7.1,3.5c2.6,3.3,5.3,6.5,8.1,9.6
			c3,3.3,3.1,8.3,0.3,11.7l-6.8,8.2c-1.6,1.9-1.3,4.7,0.6,6.3L94,368c1.1,0.9,2.1,1.1,2.9,1.1c0.8,0,2.3-0.2,3.4-1.6l6.9-8.1
			c1.8-2,4.3-3.1,6.8-3.1c1.7,0,3.3,0.4,4.8,1.4c3.6,2.2,7.2,4.3,10.9,6.3c3.9,2.1,5.7,6.7,4.3,10.9l-3.6,10
			c-0.8,2.3,0.4,4.9,2.7,5.7l18.7,6.8c0.5,0.2,1,0.3,1.5,0.3c1.9,0,3.5-1.1,4.2-2.9l3.7-10c1.3-3.6,4.7-5.8,8.4-5.8
			c0.6,0,1.2,0.1,1.9,0.2c4.1,0.9,8.2,1.6,12.4,2.2c4.4,0.6,7.7,4.3,7.8,8.8l0.1,10.7c0,2.5,2,4.5,4.5,4.5H216c2.5,0,4.5-2,4.5-4.5
			l0.1-10.7c0-4.4,3.4-8.2,7.8-8.8c4.2-0.6,8.3-1.3,12.4-2.2c0.6-0.1,1.2-0.2,1.9-0.2c3.7,0,7.1,2.3,8.4,5.8l3.7,10
			c0.7,1.7,2.3,2.9,4.2,2.9c0.5,0,1-0.1,1.5-0.3l18.7-6.8c2.3-0.8,3.5-3.4,2.7-5.7l-3.6-10c-1.5-4.2,0.3-8.8,4.2-10.9
			c3.7-2,7.3-4.1,10.9-6.3c1.5-0.9,3.1-1.4,4.8-1.4c2.6,0,5.1,1.1,6.8,3.2l6.9,8.1c0.9,1,2.1,1.6,3.4,1.6c0.7,0,1.9-0.2,2.9-1.1
			l15.2-12.7c1.9-1.6,2.1-4.4,0.6-6.3l-6.8-8.2c-2.8-3.4-2.7-8.5,0.3-11.7c2.8-3.1,5.5-6.3,8.1-9.6c1.7-2.3,4.4-3.5,7.1-3.5
			c1.5,0,3,0.4,4.4,1.2l9.3,5.3c0.7,0.4,1.4,0.6,2.2,0.6c1.3,0,3-0.6,3.9-2.3l9.9-17.2c1.2-2.1,0.5-4.9-1.6-6.1l-9.2-5.4
			c-3.8-2.2-5.5-7-3.8-11.1c1.6-3.9,3-7.8,4.3-11.8c1.2-3.7,4.7-6.2,8.5-6.2c0.5,0,1,0,1.5,0.1l11.2,1.8c2.2,0,4-1.6,4.4-3.7
			l3.4-19.6C391.6,239.1,389.9,236.8,387.5,236.4z M218.3,91.2c30.5,2.9,57.9,16.5,78.4,37c11.6,11.6,21,25.3,27.4,40.6
			c-0.6,2.7-2.5,4.9-5.2,5.7l-90.1,25.6c-1.7,0.5-4,0.4-6-0.1c-2.7-1.6-4.5-5.7-4.6-8.7l-3.5-93.6C214.6,95.1,216.1,92.7,218.3,91.2
			z M220.7,219c0,8.1-6.5,14.6-14.6,14.6c-8.1,0-14.6-6.5-14.6-14.6c0-8.1,6.5-14.6,14.6-14.6C214.1,204.4,220.7,211,220.7,219z
			 M115.4,128.2c20.8-20.8,48.6-34.4,79.6-37.1c2.4,1.4,3.9,3.9,3.8,6.7l-3.5,93.6c-0.1,1.8-0.8,3.9-2,5.7c-2.3,2-6.9,2.5-9.7,1.7
			l-90.1-25.6c-2.6-0.7-4.5-2.9-5.1-5.5C95,152.9,104.2,139.5,115.4,128.2z M127.9,311.6c-1.5,2.2-4.1,3.4-6.7,3.2
			c-2-1.7-3.9-3.5-5.8-5.4c-23.2-23.2-37.5-55.2-37.5-90.6c0-10,1.1-19.6,3.3-28.9c2.1-1.8,4.9-2.5,7.5-1.6l87.9,32.2
			c1.7,0.6,3.5,2,4.8,3.7c1.2,2.8,0.3,7.3-1.4,9.7L127.9,311.6z M271.1,329.2c-19.1,11.3-41.3,17.7-65.1,17.7
			c-24.2,0-46.8-6.7-66.1-18.4c-1.1-2.5-0.8-5.5,0.9-7.6l57.8-73.7c1.1-1.4,2.9-2.7,4.9-3.4c3.1-0.3,7,2,8.8,4.3l57.8,73.6
			C271.9,323.9,272.1,326.7,271.1,329.2z M296.7,309.4c-2.1,2.2-4.3,4.2-6.7,6.2c-2.7,0.2-5.4-0.9-7-3.2l-52.2-77.7
			c-1-1.5-1.7-3.7-1.8-5.8c0.7-3,4.1-6.1,6.8-7.1l87.9-32.2c2.6-0.9,5.3-0.3,7.4,1.4c2,8.9,3,18.2,3,27.7
			C334.2,254.2,319.9,286.2,296.7,309.4z"/>
	</g>
	<g id="Layer_2" class="st1">
		<path d="M371.6,244.3l-10.1-1.9c-4.2-0.8-7.2-4.5-7-8.8c0.1-2,0.1-4,0.1-5.9c0-2,0-4-0.1-6c-0.2-4.3,2.8-8,7-8.8l10.1-1.9
			c2.3-0.4,3.9-2.6,3.4-5l-3.3-18.7c-0.3-2-2.1-3.5-4.8-3.5c0,0-0.1,0-0.1,0l-10,1.7c-0.5,0.1-0.9,0.1-1.4,0.1c-3.7,0-7-2.4-8.1-5.9
			c-1.2-3.8-2.6-7.6-4.1-11.3c-1.6-3.9-0.1-8.5,3.6-10.6l8.8-5.2c2-1.2,2.7-3.8,1.5-5.8l-9.5-16.5c-0.9-1.6-2.5-2.1-3.7-2.1
			c-0.7,0-1.4,0.2-2.1,0.5l-8.9,5c-1.3,0.8-2.8,1.1-4.2,1.1c-2.6,0-5.1-1.2-6.8-3.3c-2.4-3.1-4.9-6.2-7.7-9.1
			c-2.9-3.1-3-7.9-0.3-11.2l6.5-7.9c1.5-1.8,1.2-4.5-0.5-6l-14.6-12.2c-1-0.8-2-1-2.7-1c-1.3,0-2.4,0.5-3.3,1.5l-6.6,7.7
			c-1.7,2-4.1,3-6.5,3c-1.6,0-3.2-0.4-4.6-1.3c-3.4-2.1-6.9-4.2-10.4-6c-3.8-2-5.5-6.4-4.1-10.4l3.4-9.6c0.8-2.2-0.4-4.7-2.6-5.5
			L250,57.1c-0.5-0.2-1-0.3-1.5-0.3c-1.8,0-3.4,1.1-4,2.8l-3.6,9.5c-1.3,3.4-4.5,5.6-8,5.6c-0.6,0-1.2-0.1-1.8-0.2
			c-3.9-0.8-7.9-1.5-11.8-2.1c-4.2-0.6-7.4-4.1-7.4-8.4l-0.1-10.2c0-2.4-1.9-4.3-4.3-4.3h-19c-2.4,0-4.2,1.9-4.3,4.3l-0.1,10.2
			c0,4.3-3.2,7.8-7.4,8.4c-3.9,0.6-7.9,1.2-11.8,2.1c-0.6,0.1-1.2,0.2-1.8,0.2c-3.5,0-6.7-2.2-8-5.6l-3.6-9.6
			c-0.6-1.7-2.2-2.8-4-2.8c-0.5,0-1,0.1-1.5,0.3l-17.8,6.5c-2.2,0.8-3.3,3.3-2.6,5.5l3.4,9.6c1.4,4-0.3,8.5-4.1,10.4
			c-3.5,1.9-7,3.9-10.4,6c-1.4,0.9-3,1.3-4.6,1.3c-2.4,0-4.8-1-6.5-3l-6.6-7.7c-0.8-0.9-2-1.5-3.3-1.5c-0.7,0-1.8,0.2-2.7,1
			L76.3,97.4c-1.8,1.5-2,4.2-0.5,6l6.5,7.9c2.7,3.3,2.6,8.1-0.3,11.2c-2.7,3-5.3,6-7.7,9.2c-1.7,2.2-4.2,3.3-6.8,3.3
			c-1.4,0-2.9-0.4-4.2-1.1l-8.9-5c-0.6-0.4-1.3-0.5-2.1-0.5c-1.6,0-2.9,0.8-3.7,2.2l-9.5,16.4c-1.2,2-0.5,4.7,1.5,5.8l8.8,5.2
			c3.7,2.2,5.2,6.7,3.6,10.6c-1.5,3.7-2.9,7.5-4.1,11.2c-1.2,3.6-4.5,6-8.1,6c-0.5,0-0.9-0.1-1.4-0.1l-10.8-1.7
			c-2.1,0-3.8,1.5-4.2,3.5L21,206.1c-0.4,2.3,1.1,4.5,3.4,4.9l10.1,1.9c4.2,0.8,7.2,4.5,7,8.7c-0.1,2-0.1,4-0.1,6c0,2,0,4,0.1,6
			c0.2,4.3-2.8,8-7,8.8l-10.1,1.8c-2.3,0.4-3.8,2.6-3.4,4.9l3.3,18.7c0.4,2,2.1,3.5,4.8,3.5c0.1,0,0.1,0,0.1,0l10-1.7
			c0.5-0.1,1-0.1,1.4-0.1c3.7,0,7,2.4,8.1,6c1.2,3.8,2.6,7.5,4.1,11.3c1.6,4,0.1,8.5-3.6,10.6l-8.8,5.2c-2,1.2-2.7,3.8-1.6,5.8
			l9.5,16.5c0.8,1.4,2.1,2.1,3.7,2.1c0.7,0,1.4-0.2,2.1-0.5l8.9-5c1.3-0.8,2.8-1.1,4.2-1.1c2.6,0,5.1,1.2,6.8,3.3
			c2.5,3.2,5,6.2,7.7,9.2c2.9,3.1,3,7.9,0.3,11.2l-6.5,7.9c-1.5,1.8-1.3,4.5,0.5,6l14.5,12.2c1,0.8,2.1,1,2.7,1
			c0.8,0,2.2-0.2,3.3-1.5l6.6-7.8c1.7-1.9,4.1-3,6.5-3c1.6,0,3.1,0.4,4.6,1.3c3.4,2.1,6.9,4.1,10.4,6c3.8,2,5.5,6.4,4.1,10.4
			l-3.4,9.6c-0.8,2.2,0.4,4.6,2.6,5.5l17.8,6.5c0.5,0.2,1,0.3,1.5,0.3c1.8,0,3.4-1.1,4-2.8l3.6-9.5c1.3-3.4,4.5-5.6,8-5.6
			c0.6,0,1.2,0.1,1.8,0.2c3.9,0.8,7.8,1.5,11.9,2.1c4.2,0.6,7.4,4.2,7.4,8.4l0.1,10.2c0,2.4,1.9,4.3,4.3,4.3h19
			c2.3,0,4.3-1.9,4.3-4.3l0.1-10.2c0-4.3,3.2-7.8,7.4-8.4c4-0.5,7.9-1.2,11.8-2.1c0.6-0.1,1.2-0.2,1.8-0.2c3.5,0,6.8,2.2,8,5.6
			l3.6,9.5c0.6,1.7,2.2,2.8,4,2.8c0.5,0,1-0.1,1.5-0.3l17.8-6.5c2.2-0.8,3.4-3.2,2.6-5.4l-3.4-9.6c-1.4-4,0.3-8.4,4.1-10.4
			c3.6-1.9,7-3.9,10.4-6c1.4-0.9,3-1.3,4.6-1.3c2.4,0,4.8,1.1,6.5,3l6.6,7.8c0.8,1,2,1.5,3.3,1.5c0.7,0,1.8-0.2,2.8-1l14.5-12.2
			c1.8-1.5,2.1-4.2,0.6-6l-6.5-7.9c-2.7-3.3-2.6-8.1,0.3-11.2c2.7-2.9,5.3-6,7.7-9.2c1.7-2.2,4.2-3.3,6.8-3.3c1.4,0,2.9,0.4,4.2,1.1
			l8.9,5c0.6,0.4,1.3,0.5,2.1,0.5c1.2,0,2.8-0.5,3.7-2.2l9.5-16.4c1.2-2,0.5-4.6-1.5-5.8l-8.8-5.2c-3.7-2.2-5.2-6.7-3.6-10.6
			c1.5-3.7,2.9-7.5,4.1-11.3c1.1-3.6,4.5-5.9,8.1-5.9c0.5,0,1,0,1.4,0.1l10.8,1.7c2.1,0,3.9-1.5,4.2-3.5l3.3-18.7
			C375.5,246.9,373.9,244.7,371.6,244.3z M110.7,177.3c7.3-12.7,23.6-17.1,36.3-9.7c12.7,7.3,17,23.6,9.7,36.3
			c-7.3,12.7-23.6,17.1-36.3,9.7C107.7,206.2,103.3,190,110.7,177.3z M147,287.9c-12.7,7.3-29,3-36.3-9.7c-7.4-12.7-3-29,9.7-36.3
			c12.7-7.3,29-3,36.3,9.7C164,264.3,159.7,280.6,147,287.9z M198,328.6c-14.7,0-26.6-11.9-26.6-26.6c0-14.7,11.9-26.6,26.6-26.6
			c14.7,0,26.6,11.9,26.6,26.6C224.6,316.7,212.7,328.6,198,328.6z M177.3,227.7c0-10.7,8.7-19.4,19.5-19.4
			c10.7,0,19.4,8.7,19.4,19.4c0,10.7-8.7,19.4-19.4,19.4C186,247.1,177.3,238.4,177.3,227.7z M198,179.9
			c-14.7,0-26.6-11.9-26.6-26.6c0-14.7,11.9-26.6,26.6-26.6c14.7,0,26.6,11.9,26.6,26.6C224.6,168,212.7,179.9,198,179.9z
			 M285.4,278.2c-7.3,12.7-23.6,17.1-36.3,9.7c-12.7-7.3-17.1-23.6-9.7-36.3c7.3-12.7,23.6-17.1,36.3-9.7
			C288.4,249.2,292.8,265.4,285.4,278.2z M275.7,213.6c-12.7,7.3-29,3-36.3-9.7c-7.4-12.7-3-29,9.7-36.3c12.7-7.3,29-3,36.3,9.7
			C292.8,190,288.4,206.2,275.7,213.6z"/>
	</g>
	<g id="Layer_3" class="st1">
		<path d="M306.2,219.1l-16.8-0.3c-0.4,0-0.7-0.3-0.8-0.7c-0.8-6.6-2.5-13.1-5-19.3c-0.2-0.4,0-0.8,0.3-1l14.4-8.9
			c0.5-0.3,0.7-1.1,0.4-1.6l-7.2-12.9c-0.2-0.4-0.6-0.6-1-0.6c-0.2,0-0.4,0.1-0.6,0.1l-14.7,8.4c-0.1,0.1-0.2,0.1-0.4,0.1
			c-0.2,0-0.5-0.1-0.6-0.3c-3.9-5.3-8.6-10.1-13.7-14.1c-0.3-0.2-0.4-0.7-0.2-1l8.1-15.2c0.3-0.6,0.1-1.3-0.4-1.6l-12.5-7.5
			c-0.2-0.1-0.4-0.2-0.6-0.2c-0.4,0-0.8,0.2-1,0.6l-8.7,14.9c-0.1,0.2-0.4,0.4-0.7,0.4c-0.1,0-0.2,0-0.3-0.1
			c-6-2.6-12.3-4.3-18.7-5.2c-0.4-0.1-0.7-0.4-0.7-0.8l-0.3-17.3c0-0.6-0.5-1.2-1.1-1.2H209c-0.6,0-1.1,0.5-1.2,1.2l-0.3,17.3
			c0,0.4-0.3,0.7-0.7,0.8c-6.4,0.8-12.7,2.6-18.7,5.2c-0.1,0-0.2,0.1-0.3,0.1c-0.3,0-0.5-0.1-0.7-0.4l-8.7-14.9
			c-0.2-0.3-0.6-0.6-1-0.6c-0.2,0-0.4,0.1-0.6,0.2l-12.5,7.5c-0.5,0.3-0.7,1-0.4,1.6l8.1,15.2c0.2,0.4,0.1,0.8-0.2,1
			c-5.2,4.1-9.8,8.8-13.7,14.1c-0.1,0.2-0.4,0.3-0.6,0.3c-0.1,0-0.3,0-0.4-0.1l-14.7-8.4c-0.2-0.1-0.4-0.1-0.6-0.1
			c-0.4,0-0.8,0.2-1,0.6l-7.2,12.9c-0.3,0.6-0.1,1.3,0.4,1.6l14.4,8.9c0.3,0.2,0.5,0.6,0.3,1c-2.5,6.2-4.2,12.7-5,19.3
			c0,0.4-0.4,0.7-0.8,0.7l-16.8,0.3c-0.6,0-1.1,0.5-1.1,1.2v14.9c0,0.6,0.5,1.2,1.1,1.2l16.8,0.3c0.4,0,0.7,0.3,0.8,0.7
			c0.8,6.6,2.5,13.1,5,19.3c0.1,0.4,0,0.8-0.3,1l-14.4,9c-0.5,0.3-0.7,1-0.4,1.6l7.2,12.9c0.2,0.4,0.6,0.6,1,0.6
			c0.2,0,0.4,0,0.6-0.1l14.7-8.4c0.1-0.1,0.2-0.1,0.4-0.1c0.2,0,0.5,0.1,0.6,0.3c3.9,5.3,8.6,10.1,13.7,14.1c0.3,0.2,0.4,0.7,0.2,1
			l-8.1,15.2c-0.3,0.6-0.1,1.3,0.4,1.6l12.5,7.5c0.2,0.1,0.4,0.2,0.6,0.2c0.4,0,0.8-0.2,1-0.6l8.7-14.8c0.1-0.2,0.4-0.4,0.7-0.4
			c0.1,0,0.2,0,0.3,0.1c6,2.6,12.3,4.3,18.7,5.2c0.4,0,0.7,0.4,0.7,0.8l0.3,17.3c0,0.6,0.5,1.2,1.2,1.2h14.5c0.6,0,1.1-0.5,1.1-1.2
			l0.3-17.3c0-0.4,0.3-0.7,0.7-0.8c6.4-0.9,12.7-2.6,18.7-5.2c0.1,0,0.2-0.1,0.3-0.1c0.3,0,0.5,0.1,0.7,0.4l8.7,14.8
			c0.2,0.4,0.6,0.6,1,0.6c0.2,0,0.4-0.1,0.6-0.2l12.5-7.5c0.5-0.3,0.7-1,0.4-1.6l-8.1-15.2c-0.2-0.4-0.1-0.8,0.2-1
			c5.1-4.1,9.8-8.8,13.7-14.1c0.1-0.2,0.4-0.3,0.6-0.3c0.1,0,0.3,0,0.4,0.1l14.7,8.4c0.2,0.1,0.4,0.1,0.6,0.1c0.4,0,0.8-0.2,1-0.6
			l7.2-12.9c0.3-0.6,0.1-1.3-0.4-1.6l-14.4-9c-0.3-0.2-0.5-0.6-0.3-1c2.5-6.2,4.2-12.7,5-19.3c0.1-0.4,0.4-0.7,0.8-0.7l16.8-0.3
			c0.6,0,1.1-0.5,1.1-1.2v-14.9C307.3,219.6,306.8,219.1,306.2,219.1z M216.2,278.3c-27.1,0-49-22.6-49-50.6c0-27.9,22-50.6,49-50.6
			c27.1,0,49.1,22.7,49.1,50.6C265.3,255.6,243.3,278.3,216.2,278.3z"/>
	</g>
	<g id="Layer_4" class="st1">
		<path d="M396.4,234.2l-10.9-2c-4.6-0.8-7.8-4.9-7.6-9.5c0.1-2.2,0.1-4.3,0.1-6.4c0-2.1,0-4.3-0.1-6.4c-0.2-4.6,3-8.7,7.6-9.5
			l10.9-2c2.5-0.5,4.2-2.9,3.7-5.4l-3.6-20.2c-0.4-2.2-2.3-3.8-5.2-3.8c0,0-0.1,0-0.1,0l-10.8,1.8c-0.5,0.1-1,0.1-1.5,0.1
			c-4,0-7.5-2.6-8.8-6.4c-1.3-4.1-2.8-8.2-4.5-12.2c-1.8-4.3-0.1-9.2,3.9-11.5l9.5-5.6c2.2-1.3,2.9-4.1,1.7-6.3l-10.3-17.8
			c-1-1.7-2.7-2.3-4-2.3c-0.8,0-1.6,0.2-2.3,0.6l-9.6,5.4c-1.4,0.8-3,1.2-4.5,1.2c-2.8,0-5.6-1.3-7.4-3.6c-2.6-3.4-5.3-6.7-8.3-9.9
			c-3.1-3.4-3.2-8.6-0.3-12.2l7-8.5c1.6-2,1.3-4.9-0.6-6.5L324.6,62c-1.1-0.9-2.2-1.1-3-1.1c-1.4,0-2.6,0.6-3.5,1.6l-7.1,8.4
			c-1.8,2.1-4.4,3.2-7,3.2c-1.7,0-3.4-0.5-4.9-1.4c-3.7-2.3-7.4-4.5-11.3-6.5c-4.1-2.1-5.9-7-4.4-11.3l3.7-10.4
			c0.8-2.4-0.4-5-2.8-5.9l-19.3-7c-0.5-0.2-1.1-0.3-1.6-0.3c-1.9,0-3.7,1.2-4.3,3l-3.8,10.3c-1.4,3.7-4.9,6-8.7,6
			c-0.7,0-1.3-0.1-2-0.2c-4.3-0.9-8.5-1.7-12.8-2.2c-4.6-0.6-8-4.5-8-9.1l-0.1-11c0-2.5-2.1-4.6-4.6-4.6h-20.5
			c-2.5,0-4.6,2.1-4.6,4.6l-0.1,11c0,4.6-3.5,8.5-8,9.1c-4.3,0.6-8.5,1.3-12.8,2.3c-0.7,0.2-1.3,0.2-2,0.2c-3.8,0-7.3-2.4-8.7-6
			l-3.9-10.3c-0.7-1.8-2.4-3-4.3-3c-0.6,0-1.1,0.1-1.6,0.3l-19.3,7c-2.4,0.9-3.6,3.5-2.8,5.9L134,55c1.5,4.3-0.3,9.1-4.4,11.3
			c-3.8,2-7.6,4.2-11.3,6.5c-1.5,1-3.2,1.4-4.9,1.4c-2.6,0-5.2-1.1-7-3.2l-7.2-8.4c-0.9-1-2.2-1.6-3.6-1.6c-0.8,0-1.9,0.2-3,1.1
			L77,75.2c-1.9,1.6-2.2,4.6-0.6,6.5l7,8.5c2.9,3.5,2.8,8.7-0.3,12.1c-2.9,3.2-5.7,6.5-8.3,9.9c-1.8,2.3-4.5,3.6-7.3,3.6
			c-1.6,0-3.1-0.4-4.6-1.2l-9.7-5.4c-0.7-0.4-1.4-0.6-2.2-0.6c-1.7,0-3.2,0.9-4,2.3l-10.3,17.7c-1.3,2.2-0.5,5,1.7,6.3l9.5,5.6
			c4,2.3,5.6,7.2,3.9,11.5c-1.6,4-3.1,8.1-4.4,12.2c-1.3,3.9-4.8,6.5-8.8,6.5c-0.5,0-1-0.1-1.6-0.1l-11.6-1.9
			c-2.2,0-4.2,1.6-4.6,3.8l-3.6,20.2c-0.4,2.5,1.2,4.9,3.7,5.3l10.9,2c4.5,0.9,7.7,4.9,7.6,9.5c-0.1,2.2-0.1,4.3-0.1,6.5
			c0,2.2,0,4.3,0.1,6.5c0.2,4.6-3.1,8.6-7.6,9.5l-10.9,2c-2.5,0.5-4.1,2.9-3.7,5.4l3.6,20.3c0.4,2.2,2.3,3.8,5.2,3.8
			c0.1,0,0.1,0,0.1,0l10.8-1.8c0.5-0.1,1-0.1,1.6-0.1c4,0,7.5,2.6,8.8,6.5c1.3,4.1,2.8,8.2,4.4,12.2c1.7,4.3,0.1,9.2-3.9,11.5
			l-9.5,5.6c-2.2,1.3-3,4.2-1.7,6.3l10.3,17.8c0.8,1.5,2.3,2.3,4,2.3c0.8,0,1.6-0.2,2.3-0.6l9.6-5.4c1.4-0.8,3-1.2,4.6-1.2
			c2.8,0,5.5,1.3,7.3,3.6c2.7,3.4,5.4,6.7,8.3,9.9c3.1,3.4,3.2,8.6,0.3,12.1l-7,8.5c-1.6,2-1.4,4.9,0.6,6.5l15.7,13.2
			c1.1,0.9,2.2,1.1,3,1.1c0.8,0,2.3-0.2,3.6-1.6l7.2-8.4c1.8-2.1,4.4-3.2,7-3.2c1.7,0,3.4,0.5,4.9,1.4c3.7,2.3,7.5,4.5,11.3,6.5
			c4.1,2.1,5.9,6.9,4.4,11.3l-3.7,10.4c-0.9,2.4,0.4,5,2.8,5.9l19.3,7c0.5,0.2,1.1,0.3,1.6,0.3c2,0,3.6-1.2,4.3-3l3.9-10.3
			c1.4-3.7,4.9-6,8.7-6c0.6,0,1.3,0.1,1.9,0.2c4.2,0.9,8.5,1.7,12.8,2.2c4.6,0.6,8,4.5,8,9.1l0.1,11c0,2.5,2.1,4.6,4.6,4.6h20.5
			c2.5,0,4.6-2.1,4.6-4.6l0.1-11c0-4.6,3.5-8.5,8-9.1c4.3-0.6,8.6-1.3,12.8-2.2c0.6-0.1,1.3-0.2,1.9-0.2c3.8,0,7.3,2.3,8.7,6
			l3.8,10.3c0.7,1.8,2.4,3,4.3,3c0.5,0,1.1-0.1,1.6-0.3l19.3-7c2.4-0.9,3.6-3.5,2.8-5.9l-3.7-10.4c-1.5-4.3,0.3-9.1,4.4-11.3
			c3.8-2,7.6-4.2,11.3-6.5c1.5-1,3.3-1.4,4.9-1.4c2.6,0,5.2,1.1,7.1,3.3l7.1,8.4c0.9,1,2.2,1.6,3.5,1.6c0.8,0,1.9-0.2,3-1.1
			l15.7-13.2c1.9-1.6,2.2-4.6,0.6-6.5l-7-8.5c-2.9-3.6-2.8-8.8,0.3-12.2c2.9-3.2,5.7-6.5,8.3-9.9c1.8-2.4,4.5-3.6,7.3-3.6
			c1.6,0,3.1,0.4,4.6,1.2l9.6,5.4c0.7,0.4,1.4,0.6,2.2,0.6c1.3,0,3.1-0.6,4-2.3l10.3-17.8c1.3-2.2,0.5-5-1.7-6.3l-9.5-5.6
			c-4-2.3-5.6-7.2-3.9-11.5c1.6-4,3.1-8.1,4.5-12.2c1.2-3.9,4.8-6.4,8.8-6.4c0.5,0,1,0.1,1.5,0.1l11.6,1.9c2.3,0,4.2-1.6,4.6-3.8
			l3.6-20.3C400.6,237,398.9,234.6,396.4,234.2z M208.6,239.6c-12.9,0-23.4-10.5-23.4-23.4c0-12.9,10.5-23.4,23.4-23.4
			c12.9,0,23.4,10.5,23.4,23.4C232,229.1,221.6,239.6,208.6,239.6z"/>
	</g>
	<g id="Layer_5" class="st1">
		<g id="svg_3">
			<path id="svg_4" d="M99.9,57.8l14.8,42.9l0,0c-7.8,6.2-14.9,13-21.3,20.4l0,0l-43.1-15.7l-16.8,27.5l34.7,29.4l0.1,0
				c-3.7,9-6.5,18.4-8.3,27.9l-0.1-0.1L14.2,198l-0.8,31.8l45.4,8c1.3,9.4,3.6,18.7,6.9,27.9l0,0l-36.3,29.3l15.4,27.6l43.9-15.6
				l0,0c6.1,7.6,12.8,14.4,20.1,20.4l-17,42.9l27.5,15.9l30.6-34.9l0-0.1c9.1,3.4,18.5,6,28.1,7.5l0,0.1l6.8,45l32.3,0.1l9.1-45l0,0
				c9.6-1.5,19.1-4,28.5-7.4l0,0l28.8,35l28.3-15.9l-14.8-42.9l0,0c7.8-6.2,14.9-13,21.3-20.4l43.1,15.7l16.8-27.5L343.7,266
				c3.7-9,6.5-18.4,8.3-27.9l45.8-7.8l0.8-31.8l-45.4-8c-1.3-9.4-3.6-18.7-6.9-27.9l36.3-29.2l-15.4-27.6l-43.9,15.6
				c-6.1-7.6-12.9-14.4-20.2-20.4l17-42.9l-27.5-15.9l-30.7,35c-9.1-3.4-18.5-5.9-28.1-7.5l-6.8-45l-32.3-0.1l-9.2,45
				c-9.6,1.5-19.1,4-28.5,7.5l0,0l-28.8-35L99.9,57.8L99.9,57.8z M151.6,117c55.2-30.9,124.3-12.4,154.3,41.2
				c30,53.7,9.6,122.2-45.6,153c-55.2,30.9-124.2,12.4-154.3-41.2S96.5,147.9,151.6,117z"/>
		</g>
		<g id="vector" class="st0">
			<line class="st2" x1="209.8" y1="69.6" x2="202.2" y2="358.6"/>
			<line class="st2" x1="61.4" y1="214.1" x2="350.5" y2="214.1"/>
			<circle class="st2" cx="206" cy="214.1" r="41.4"/>
		</g>
		<g>
			<path d="M184.5,271.7l-2.3,86.4l40,1l2.3-86.4c-5.8,1.8-12,2.8-18.5,2.8C198.4,275.6,191.2,274.2,184.5,271.7z"/>
			<path class="st0" d="M206,235.6c2.7,0,5.3-0.5,7.7-1.4h-15.3C200.7,235,203.3,235.6,206,235.6z"/>
			<path class="st0" d="M206,192.7c-2.7,0-5.3,0.5-7.7,1.4h15.3C211.3,193.2,208.7,192.7,206,192.7z"/>
			<path d="M227.5,156.6l2.3-86.4l-40-1l-2.3,86.4c5.8-1.8,12-2.8,18.5-2.8C213.5,152.7,220.8,154.1,227.5,156.6z"/>
			<path class="st0" d="M227.4,214.1c0-2.5-0.5-4.9-1.2-7.1l-0.4,15.4C226.8,219.8,227.4,217,227.4,214.1z"/>
			<path d="M147.9,194.1H61.4v40h86.5c-2.2-6.3-3.4-13-3.4-20S145.7,200.4,147.9,194.1z"/>
			<path d="M350.5,194.1h-86.5c2.2,6.3,3.4,13,3.4,20s-1.2,13.7-3.4,20h86.5V194.1z"/>
			<path class="st0" d="M184.5,214.1c0,2.5,0.5,4.9,1.2,7.1l0.4-15.4C185.1,208.4,184.5,211.2,184.5,214.1z"/>
			<path class="st0" d="M213.6,194.1h-15.3c-5.5,2.1-9.9,6.4-12.1,11.8l-0.4,15.4c2.1,5.9,6.7,10.6,12.5,12.9h15.3
				c5.5-2.1,9.9-6.4,12.1-11.8l0.4-15.4C224.1,201.1,219.5,196.4,213.6,194.1z"/>
			<path d="M264.1,194.1c-6-17.3-19.5-31.1-36.6-37.5l-1,37.5H264.1z"/>
			<path d="M224.4,272.7c18.5-5.9,33.3-20.3,39.6-38.6h-38.6L224.4,272.7z"/>
			<path d="M147.9,234.1c6,17.3,19.5,31.1,36.6,37.5l1-37.5H147.9z"/>
			<path d="M187.5,155.5c-18.5,5.9-33.3,20.3-39.6,38.6h38.6L187.5,155.5z"/>
			<path d="M198.3,194.1c2.4-0.9,5-1.4,7.7-1.4c2.7,0,5.3,0.5,7.7,1.4h12.9l1-37.5c-6.7-2.5-13.9-3.9-21.5-3.9
				c-6.4,0-12.6,1-18.5,2.8l-1,38.6H198.3z"/>
			<path d="M213.6,234.1c-2.4,0.9-5,1.4-7.7,1.4c-2.7,0-5.3-0.5-7.7-1.4h-12.9l-1,37.5c6.7,2.5,13.9,3.9,21.5,3.9
				c6.4,0,12.6-1,18.5-2.8l1-38.6H213.6z"/>
			<path d="M264.1,194.1h-37.5l-0.3,12.9c0.8,2.2,1.2,4.6,1.2,7.1c0,2.9-0.6,5.7-1.6,8.2l-0.3,11.8h38.6c2.2-6.3,3.4-13,3.4-20
				S266.2,200.4,264.1,194.1z"/>
			<path d="M185.8,221.3c-0.8-2.2-1.2-4.6-1.2-7.1c0-2.9,0.6-5.7,1.6-8.2l0.3-11.8h-38.6c-2.2,6.3-3.4,13-3.4,20s1.2,13.7,3.4,20
				h37.5L185.8,221.3z"/>
			<path d="M185.8,221.3l-0.3,12.9h12.9C192.5,231.9,187.9,227.2,185.8,221.3z"/>
			<path d="M226.2,207l0.3-12.9h-12.9C219.5,196.4,224.1,201.1,226.2,207z"/>
			<path d="M213.6,234.1h11.8l0.3-11.8C223.5,227.8,219.1,232,213.6,234.1z"/>
			<path d="M198.3,194.1h-11.8l-0.3,11.8C188.4,200.5,192.8,196.2,198.3,194.1z"/>
		</g>
	</g>
	<g id="Layer_7" class="st1">
		<g id="svg_3_1_">
			<path id="svg_4_1_" d="M99.9,57.8l14.8,42.9l0,0c-7.8,6.2-14.9,13-21.3,20.4l0,0l-43.1-15.7l-16.8,27.5l34.7,29.4l0.1,0
				c-3.7,9-6.5,18.4-8.3,27.9l-0.1-0.1L14.2,198l-0.8,31.8l45.4,8c1.3,9.4,3.6,18.7,6.9,27.9l0,0l-36.3,29.3l15.4,27.6l43.9-15.6
				l0,0c6.1,7.6,12.8,14.4,20.1,20.4l-17,42.9l27.5,15.9l30.6-34.9l0-0.1c9.1,3.4,18.5,6,28.1,7.5l0,0.1l6.8,45l32.3,0.1l9.1-45l0,0
				c9.6-1.5,19.1-4,28.5-7.4l0,0l28.8,35l28.3-15.9l-14.8-42.9l0,0c7.8-6.2,14.9-13,21.3-20.4l43.1,15.7l16.8-27.5L343.7,266
				c3.7-9,6.5-18.4,8.3-27.9l45.8-7.8l0.8-31.8l-45.4-8c-1.3-9.4-3.6-18.7-6.9-27.9l36.3-29.2l-15.4-27.6l-43.9,15.6
				c-6.1-7.6-12.9-14.4-20.2-20.4l17-42.9l-27.5-15.9l-30.7,35c-9.1-3.4-18.5-5.9-28.1-7.5l-6.8-45l-32.3-0.1l-9.2,45
				c-9.6,1.5-19.1,4-28.5,7.5l0,0l-28.8-35L99.9,57.8L99.9,57.8z M151.6,117c55.2-30.9,124.3-12.4,154.3,41.2
				c30,53.7,9.6,122.2-45.6,153c-55.2,30.9-124.2,12.4-154.3-41.2S96.5,147.9,151.6,117z"/>
		</g>
		<g id="vector_1_" class="st0">
			<line class="st3" x1="211.9" y1="72.7" x2="202.7" y2="343.4"/>
			<line class="st3" x1="82.5" y1="145.8" x2="330" y2="284.6"/>
			<line class="st3" x1="330" y1="149" x2="74.8" y2="285.9"/>
			<circle class="st3" cx="206" cy="214.1" r="26.6"/>
		</g>
		<g id="Layer_8_copy">
			<g>
				<path d="M195.9,249.3l-3.2,93.8l20,0.7l3.2-94.4c-3.2,0.9-6.5,1.4-9.9,1.4C202.5,250.7,199.1,250.2,195.9,249.3z"/>
				<path class="st0" d="M214.2,199.8c-2.4-1.4-5.2-2.2-8.2-2.2c-2.7,0-5.3,0.7-7.5,1.8l8.1,4.5L214.2,199.8z"/>
				<path d="M218.3,179.7L221.9,73l-20-0.7l-3.6,106c2.5-0.5,5-0.8,7.7-0.8C210.3,177.6,214.4,178.3,218.3,179.7z"/>
				<path class="st0" d="M200.6,229.8c1.7,0.6,3.5,0.9,5.4,0.9c2,0,3.9-0.4,5.6-1l-5.3-3L200.6,229.8z"/>
				<path d="M231.1,240.6l93.9,52.7l9.8-17.4l-93.5-52.4C239.6,230.1,236,236,231.1,240.6z"/>
				<path class="st0" d="M197.6,199.9c-4.6,2.7-7.7,7.6-8.1,13.2l7.8-4.2L197.6,199.9z"/>
				<path class="st0" d="M216.7,226.8c2.6-2.2,4.5-5.1,5.3-8.5l-5.1,2.8L216.7,226.8z"/>
				<path d="M87.4,137.1l-9.8,17.4l92.6,51.9c1.4-6.8,4.8-12.8,9.4-17.7L87.4,137.1z"/>
				<path class="st0" d="M206.5,203.9l-8.1-4.5c-0.3,0.2-0.6,0.3-0.9,0.5l-0.3,9L206.5,203.9z"/>
				<path class="st0" d="M216.9,221l-10.6,5.7l5.3,3c1.9-0.7,3.6-1.7,5.1-2.9L216.9,221z"/>
				<path class="st0" d="M189.7,217.4c0.9,4.3,3.4,8,6.9,10.4l0.2-6.4L189.7,217.4z"/>
				<path d="M334.7,157.8l-9.5-17.6l-92.1,49.4c4.5,4.9,7.6,11.1,8.8,18L334.7,157.8z"/>
				<path d="M170.5,223.2L70.1,277.1l9.5,17.6l101.1-54.2C175.8,235.8,172.2,229.9,170.5,223.2z"/>
				<path class="st0" d="M222.5,212.9c-0.3-4.2-2.2-7.9-5-10.6l-0.3,7.7L222.5,212.9z"/>
				<path class="st0" d="M217.2,209.9l0.3-7.7c-1-1-2.1-1.8-3.3-2.5l-7.7,4.1L217.2,209.9z"/>
				<path class="st0" d="M196.8,221.4l-0.2,6.4c1.2,0.8,2.5,1.5,3.9,2l5.7-3.1L196.8,221.4z"/>
				<path class="st0" d="M197.3,208.9l-7.8,4.2c0,0.4-0.1,0.7-0.1,1.1c0,1.1,0.1,2.2,0.3,3.3l7.1,4L197.3,208.9z"/>
				<path class="st0" d="M216.9,221l5.1-2.8c0.3-1.3,0.5-2.7,0.5-4.1c0-0.4,0-0.8-0.1-1.3l-5.3-2.9L216.9,221z"/>
				<polygon class="st0" points="206.5,203.9 197.3,208.9 196.8,221.4 206.3,226.7 216.9,221 217.2,209.9 				"/>
				<path d="M180.6,240.5c4.2,4.1,9.5,7.1,15.3,8.8l0.6-17.3L180.6,240.5z"/>
				<path d="M170.2,206.5c-0.5,2.5-0.8,5-0.8,7.6c0,3.1,0.4,6.2,1.1,9.1l15.1-8.1L170.2,206.5z"/>
				<path d="M216.5,232.4l-0.6,16.9c5.8-1.6,11-4.7,15.2-8.7L216.5,232.4z"/>
				<path d="M233.1,189.6c-4-4.4-9.1-7.9-14.8-9.9l-0.6,18.2L233.1,189.6z"/>
				<path d="M198.3,178.4c-7.3,1.6-13.7,5.3-18.7,10.5l18,10.1L198.3,178.4z"/>
				<path d="M241.3,223.4c0.8-3,1.2-6.1,1.2-9.3c0-2.2-0.2-4.4-0.6-6.6l-14.8,7.9L241.3,223.4z"/>
				<path d="M198.4,199.4c2.3-1.2,4.8-1.8,7.5-1.8c3,0,5.8,0.8,8.2,2.2l3.4-1.8l0.6-18.2c-3.8-1.4-8-2.1-12.3-2.1
					c-2.6,0-5.2,0.3-7.7,0.8l-0.7,20.5L198.4,199.4z"/>
				<path d="M211.6,229.7c-1.8,0.6-3.7,1-5.6,1c-1.9,0-3.7-0.3-5.4-0.9l-4.1,2.2l-0.6,17.3c3.2,0.9,6.6,1.4,10.1,1.4
					c3.4,0,6.8-0.5,9.9-1.4l0.6-16.9L211.6,229.7z"/>
				<path d="M222,218.3c-0.9,3.4-2.8,6.3-5.3,8.5l-0.2,5.6l14.7,8.2c4.9-4.6,8.5-10.5,10.2-17.2l-14.2-7.9L222,218.3z"/>
				<path d="M189.5,213c0.4-5.6,3.5-10.5,8.1-13.2l0-1l-18-10.1c-4.6,4.8-7.9,10.9-9.4,17.7l15.4,8.6L189.5,213z"/>
				<path d="M197.6,198.9l0,1c0.3-0.2,0.6-0.3,0.9-0.5L197.6,198.9z"/>
				<path d="M211.6,229.7l4.9,2.7l0.2-5.6C215.2,228,213.5,229,211.6,229.7z"/>
				<path d="M196.6,227.8c-3.5-2.4-6-6.1-6.9-10.4l-4.1-2.3l-15.1,8.1c1.7,6.7,5.3,12.6,10.1,17.3l15.8-8.5L196.6,227.8z"/>
				<path d="M217.5,202.2c2.8,2.7,4.7,6.5,5,10.6l4.7,2.6l14.8-7.9c-1.2-6.8-4.4-13-8.8-18l-15.5,8.3L217.5,202.2z"/>
				<path d="M196.5,232l4.1-2.2c-1.4-0.5-2.7-1.2-3.9-2L196.5,232z"/>
				<path d="M217.6,197.9l-3.4,1.8c1.2,0.7,2.3,1.5,3.3,2.5L217.6,197.9z"/>
				<path d="M222,218.3l5.2-2.8l-4.7-2.6c0,0.4,0.1,0.8,0.1,1.3C222.6,215.6,222.4,216.9,222,218.3z"/>
				<path d="M189.5,213l-3.9,2.1l4.1,2.3c-0.2-1.1-0.3-2.2-0.3-3.3C189.4,213.8,189.4,213.4,189.5,213z"/>
			</g>
		</g>
	</g>
	<g id="Layer_31" class="st1">
		<path class="st4" d="M50.7,238.4v-48.5l46.7-4.9c2.8-9.3,6.7-18.4,11.5-27.3l-29.7-36.4l34-34l36.4,29.7
			c8.5-4.9,17.6-8.7,27.3-11.5l4.9-46.7h48.5l4.9,46.7c9.3,2.8,18.4,6.7,27.3,11.5l36.4-29.7l34,34l-29.7,36.4
			c4.9,8.9,8.7,18,11.5,27.3l46.7,4.9v48.5l-46.7,4.9c-2.8,9.7-6.7,18.8-11.5,27.3l29.7,36.4l-34,34l-36.4-29.7
			c-8.9,4.9-18,8.7-27.3,11.5l-4.9,46.7h-48.5l-4.9-46.7c-9.7-2.8-18.8-6.7-27.3-11.5l-36.4,29.7l-34-34l29.7-36.4
			c-4.9-8.5-8.7-17.6-11.5-27.3L50.7,238.4z M161.1,214.1c0,12.5,4.3,23.2,13,31.9c8.7,8.7,19.3,13,31.9,13c12.5,0,23.2-4.3,31.9-13
			c8.7-8.7,13-19.3,13-31.9c0-12.5-4.3-23.2-13-31.9c-8.7-8.7-19.3-13-31.9-13s-23.2,4.3-31.9,13S161.1,201.6,161.1,214.1
			L161.1,214.1z"/>
	</g>
	<g id="Layer_32" class="st1">
		<g>
			<path class="st4" d="M302.4,186.4c-2.1-7.3-5-14.3-8.6-20.9l16.6-35c-6.2-7.7-13.2-14.7-20.9-20.9l-35,16.6
				c-6.5-3.6-13.5-6.5-20.9-8.6l-13-36.6c-4.8-0.5-9.8-0.9-14.7-0.9c-5,0-9.9,0.3-14.7,0.9l-13,36.6c-7.3,2.1-14.3,5-20.8,8.6
				l-35-16.6c-7.7,6.2-14.7,13.2-20.9,20.9l16.6,35c-3.6,6.5-6.5,13.5-8.6,20.9l-36.6,13c-0.5,4.8-0.9,9.8-0.9,14.7
				c0,5,0.3,9.9,0.9,14.7l36.6,13c2.1,7.3,5,14.3,8.6,20.9l-16.6,35c6.2,7.7,13.2,14.7,20.9,20.9l35-16.6c6.5,3.6,13.5,6.5,20.9,8.6
				l13,36.6c4.8,0.5,9.7,0.8,14.7,0.8c5,0,9.9-0.3,14.7-0.9l13-36.6c7.3-2.1,14.3-5,20.9-8.6l35,16.6c7.7-6.2,14.7-13.2,20.9-20.9
				l-16.6-35c3.6-6.5,6.5-13.5,8.6-20.9l36.6-13c0.5-4.8,0.8-9.7,0.8-14.7c0-5-0.3-9.9-0.9-14.7L302.4,186.4z M206,281.1
				c-37,0-67-30-67-67s30-67,67-67s67,30,67,67S243,281.1,206,281.1z"/>
		</g>
	</g>
	<g id="Layer_32_copy" class="st1">
		<g>
			<path class="st4" d="M339.1,228.9c0.5-4.8,0.8-9.7,0.8-14.7c0-5-0.3-9.9-0.9-14.7l-36.6-13c-2.1-7.3-5-14.3-8.6-20.9l16.6-35
				c-6.2-7.7-13.2-14.7-20.9-20.9l-35,16.6c-6.5-3.6-13.5-6.5-20.9-8.6l-13-36.6c-4.8-0.5-9.8-0.9-14.7-0.9c-5,0-9.9,0.3-14.7,0.9
				l-13,36.6c-7.3,2.1-14.3,5-20.8,8.6l-35-16.6c-7.7,6.2-14.7,13.2-20.9,20.9l16.6,35c-3.6,6.5-6.5,13.5-8.6,20.9l-36.6,13
				c-0.5,4.8-0.9,9.8-0.9,14.7c0,5,0.3,9.9,0.9,14.7l36.6,13c2.1,7.3,5,14.3,8.6,20.9l-16.6,35c6.2,7.7,13.2,14.7,20.9,20.9l35-16.6
				c6.5,3.6,13.5,6.5,20.9,8.6l13,36.6c4.8,0.5,9.7,0.8,14.7,0.8c5,0,9.9-0.3,14.7-0.9l13-36.6c7.3-2.1,14.3-5,20.9-8.6l35,16.6
				c7.7-6.2,14.7-13.2,20.9-20.9l-16.6-35c3.6-6.5,6.5-13.5,8.6-20.9L339.1,228.9z M288.5,225.8h-16.6
				c-4.9,27.6-26.6,49.4-54.2,54.2v14.8h-23.4v-14.8c-27.6-4.9-49.4-26.6-54.2-54.2h-16.6v-23.4h16.6c4.9-27.6,26.6-49.4,54.2-54.2
				v-14.8h23.4v14.8c27.6,4.9,49.4,26.6,54.2,54.2h16.6V225.8z"/>
			<path class="st4" d="M217.7,182.8v19.7h19.7C234,193.4,226.8,186.1,217.7,182.8z"/>
			<path class="st4" d="M194.3,182.8c-9.1,3.4-16.3,10.6-19.7,19.7h19.7V182.8z"/>
			<path class="st4" d="M217.7,245.5c9.1-3.4,16.3-10.6,19.7-19.7h-19.7V245.5z"/>
			<path class="st4" d="M174.6,225.8c3.4,9.1,10.6,16.3,19.7,19.7v-19.7H174.6z"/>
			<path d="M206,180.7c4.1,0,8.1,0.7,11.7,2.1v-34.5c-3.8-0.7-7.7-1-11.7-1c-4,0-7.9,0.4-11.7,1v34.5
				C197.9,181.4,201.9,180.7,206,180.7z"/>
			<path d="M206,247.6c-4.1,0-8.1-0.7-11.7-2.1v34.5c3.8,0.7,7.7,1,11.7,1c4,0,7.9-0.4,11.7-1v-34.5
				C214,246.9,210.1,247.6,206,247.6z"/>
			<path d="M217.7,148.2v-14.8h-23.4v14.8c3.8-0.7,7.7-1,11.7-1C210,147.2,213.9,147.5,217.7,148.2z"/>
			<path d="M204.8,202.4c0.3,0,0.7-0.1,1.1-0.1s0.7,0,1.1,0.1h10.8v-19.7c-3.6-1.4-7.6-2.1-11.7-2.1c-4.1,0-8.1,0.7-11.7,2.1v19.7
				H204.8z"/>
			<path d="M194.3,280.1v14.8h23.4v-14.8c-3.8,0.7-7.7,1-11.7,1C202,281.1,198.1,280.7,194.3,280.1z"/>
			<path d="M194.3,225.8v19.7c3.6,1.4,7.6,2.1,11.7,2.1c4.1,0,8.1-0.7,11.7-2.1v-19.7H194.3z"/>
			<path d="M271.9,202.4h-34.5c1.4,3.6,2.1,7.6,2.1,11.7s-0.7,8.1-2.1,11.7h34.5c0.7-3.8,1-7.7,1-11.7S272.6,206.2,271.9,202.4z"/>
			<path d="M172.5,214.1c0-4.1,0.7-8.1,2.1-11.7h-34.5c-0.7,3.8-1,7.7-1,11.7s0.4,7.9,1,11.7h34.5
				C173.2,222.2,172.5,218.2,172.5,214.1z"/>
			<path d="M194.3,202.4h-19.7c-1.4,3.6-2.1,7.6-2.1,11.7s0.7,8.1,2.1,11.7h19.7V202.4z"/>
			<path d="M272.9,214.1c0,4-0.4,7.9-1,11.7h16.6v-23.4h-16.6C272.6,206.2,272.9,210.1,272.9,214.1z"/>
			<path d="M140.1,202.4h-16.6v23.4h16.6c-0.7-3.8-1-7.7-1-11.7S139.4,206.2,140.1,202.4z"/>
			<path d="M217.7,225.8h19.7c1.4-3.6,2.1-7.6,2.1-11.7s-0.7-8.1-2.1-11.7h-19.7V225.8z"/>
			<path d="M216.3,212.8c0,5.8-4.7,10.4-10.4,10.4s-10.4-4.7-10.4-10.4c0-5.4,4.1-9.8,9.4-10.4h-10.5v23.4h23.4v-23.4h-10.8
				C212.2,203,216.3,207.4,216.3,212.8z"/>
		</g>
	</g>
</g>
<g id="website-gears">
	<g id="dark-brown">
		<g id="gear-5-dark-brown">
			<g id="svg_3_2_">
				<path id="svg_4_2_" class="st5" d="M99.9,57.8l14.8,42.9l0,0c-7.8,6.2-14.9,13-21.3,20.4l0,0l-43.1-15.7l-16.8,27.5l34.7,29.4
					l0.1,0c-3.7,9-6.5,18.4-8.3,27.9l-0.1-0.1L14.2,198l-0.8,31.8l45.4,8c1.3,9.4,3.6,18.7,6.9,27.9l0,0l-36.3,29.3l15.4,27.6
					l43.9-15.6l0,0c6.1,7.6,12.8,14.4,20.1,20.4l-17,42.9l27.5,15.9l30.6-34.9l0-0.1c9.1,3.4,18.5,6,28.1,7.5l0,0.1l6.8,45l32.3,0.1
					l9.1-45l0,0c9.6-1.5,19.1-4,28.5-7.4l0,0l28.8,35l28.3-15.9l-14.8-42.9l0,0c7.8-6.2,14.9-13,21.3-20.4l43.1,15.7l16.8-27.5
					L343.7,266c3.7-9,6.5-18.4,8.3-27.9l45.8-7.8l0.8-31.8l-45.4-8c-1.3-9.4-3.6-18.7-6.9-27.9l36.3-29.2l-15.4-27.6l-43.9,15.6
					c-6.1-7.6-12.9-14.4-20.2-20.4l17-42.9l-27.5-15.9l-30.7,35c-9.1-3.4-18.5-5.9-28.1-7.5l-6.8-45l-32.3-0.1l-9.2,45
					c-9.6,1.5-19.1,4-28.5,7.5l0,0l-28.8-35L99.9,57.8L99.9,57.8z M151.6,117c55.2-30.9,124.3-12.4,154.3,41.2
					c30,53.7,9.6,122.2-45.6,153c-55.2,30.9-124.2,12.4-154.3-41.2S96.5,147.9,151.6,117z"/>
			</g>
			<g id="Layer_8_copy_2">
				<g>
					<path class="st5" d="M195.9,249.3l-3.2,93.8l20,0.7l3.2-94.4c-3.2,0.9-6.5,1.4-9.9,1.4C202.5,250.7,199.1,250.2,195.9,249.3z"
						/>
					<path class="st6" d="M214.2,199.8c-2.4-1.4-5.2-2.2-8.2-2.2c-2.7,0-5.3,0.7-7.5,1.8l8.1,4.5L214.2,199.8z"/>
					<path class="st5" d="M218.3,179.7L221.9,73l-20-0.7l-3.6,106c2.5-0.5,5-0.8,7.7-0.8C210.3,177.6,214.4,178.3,218.3,179.7z"/>
					<path class="st6" d="M200.6,229.8c1.7,0.6,3.5,0.9,5.4,0.9c2,0,3.9-0.4,5.6-1l-5.3-3L200.6,229.8z"/>
					<path class="st5" d="M231.1,240.6l93.9,52.7l9.8-17.4l-93.5-52.4C239.6,230.1,236,236,231.1,240.6z"/>
					<path class="st6" d="M197.6,199.9c-4.6,2.7-7.7,7.6-8.1,13.2l7.8-4.2L197.6,199.9z"/>
					<path class="st6" d="M216.7,226.8c2.6-2.2,4.5-5.1,5.3-8.5l-5.1,2.8L216.7,226.8z"/>
					<path class="st5" d="M87.4,137.1l-9.8,17.4l92.6,51.9c1.4-6.8,4.8-12.8,9.4-17.7L87.4,137.1z"/>
					<path class="st6" d="M206.5,203.9l-8.1-4.5c-0.3,0.2-0.6,0.3-0.9,0.5l-0.3,9L206.5,203.9z"/>
					<path class="st6" d="M216.9,221l-10.6,5.7l5.3,3c1.9-0.7,3.6-1.7,5.1-2.9L216.9,221z"/>
					<path class="st6" d="M189.7,217.4c0.9,4.3,3.4,8,6.9,10.4l0.2-6.4L189.7,217.4z"/>
					<path class="st5" d="M334.7,157.8l-9.5-17.6l-92.1,49.4c4.5,4.9,7.6,11.1,8.8,18L334.7,157.8z"/>
					<path class="st5" d="M170.5,223.2L70.1,277.1l9.5,17.6l101.1-54.2C175.8,235.8,172.2,229.9,170.5,223.2z"/>
					<path class="st6" d="M222.5,212.9c-0.3-4.2-2.2-7.9-5-10.6l-0.3,7.7L222.5,212.9z"/>
					<path class="st6" d="M217.2,209.9l0.3-7.7c-1-1-2.1-1.8-3.3-2.5l-7.7,4.1L217.2,209.9z"/>
					<path class="st6" d="M196.8,221.4l-0.2,6.4c1.2,0.8,2.5,1.5,3.9,2l5.7-3.1L196.8,221.4z"/>
					<path class="st6" d="M197.3,208.9l-7.8,4.2c0,0.4-0.1,0.7-0.1,1.1c0,1.1,0.1,2.2,0.3,3.3l7.1,4L197.3,208.9z"/>
					<path class="st6" d="M216.9,221l5.1-2.8c0.3-1.3,0.5-2.7,0.5-4.1c0-0.4,0-0.8-0.1-1.3l-5.3-2.9L216.9,221z"/>
					<polygon class="st6" points="206.5,203.9 197.3,208.9 196.8,221.4 206.3,226.7 216.9,221 217.2,209.9 					"/>
					<path class="st5" d="M180.6,240.5c4.2,4.1,9.5,7.1,15.3,8.8l0.6-17.3L180.6,240.5z"/>
					<path class="st5" d="M170.2,206.5c-0.5,2.5-0.8,5-0.8,7.6c0,3.1,0.4,6.2,1.1,9.1l15.1-8.1L170.2,206.5z"/>
					<path class="st5" d="M216.5,232.4l-0.6,16.9c5.8-1.6,11-4.7,15.2-8.7L216.5,232.4z"/>
					<path class="st5" d="M233.1,189.6c-4-4.4-9.1-7.9-14.8-9.9l-0.6,18.2L233.1,189.6z"/>
					<path class="st5" d="M198.3,178.4c-7.3,1.6-13.7,5.3-18.7,10.5l18,10.1L198.3,178.4z"/>
					<path class="st5" d="M241.3,223.4c0.8-3,1.2-6.1,1.2-9.3c0-2.2-0.2-4.4-0.6-6.6l-14.8,7.9L241.3,223.4z"/>
					<path class="st5" d="M198.4,199.4c2.3-1.2,4.8-1.8,7.5-1.8c3,0,5.8,0.8,8.2,2.2l3.4-1.8l0.6-18.2c-3.8-1.4-8-2.1-12.3-2.1
						c-2.6,0-5.2,0.3-7.7,0.8l-0.7,20.5L198.4,199.4z"/>
					<path class="st5" d="M211.6,229.7c-1.8,0.6-3.7,1-5.6,1c-1.9,0-3.7-0.3-5.4-0.9l-4.1,2.2l-0.6,17.3c3.2,0.9,6.6,1.4,10.1,1.4
						c3.4,0,6.8-0.5,9.9-1.4l0.6-16.9L211.6,229.7z"/>
					<path class="st5" d="M222,218.3c-0.9,3.4-2.8,6.3-5.3,8.5l-0.2,5.6l14.7,8.2c4.9-4.6,8.5-10.5,10.2-17.2l-14.2-7.9L222,218.3z"
						/>
					<path class="st5" d="M189.5,213c0.4-5.6,3.5-10.5,8.1-13.2l0-1l-18-10.1c-4.6,4.8-7.9,10.9-9.4,17.7l15.4,8.6L189.5,213z"/>
					<path class="st5" d="M197.6,198.9l0,1c0.3-0.2,0.6-0.3,0.9-0.5L197.6,198.9z"/>
					<path class="st5" d="M211.6,229.7l4.9,2.7l0.2-5.6C215.2,228,213.5,229,211.6,229.7z"/>
					<path class="st5" d="M196.6,227.8c-3.5-2.4-6-6.1-6.9-10.4l-4.1-2.3l-15.1,8.1c1.7,6.7,5.3,12.6,10.1,17.3l15.8-8.5
						L196.6,227.8z"/>
					<path class="st5" d="M217.5,202.2c2.8,2.7,4.7,6.5,5,10.6l4.7,2.6l14.8-7.9c-1.2-6.8-4.4-13-8.8-18l-15.5,8.3L217.5,202.2z"/>
					<path class="st5" d="M196.5,232l4.1-2.2c-1.4-0.5-2.7-1.2-3.9-2L196.5,232z"/>
					<path class="st5" d="M217.6,197.9l-3.4,1.8c1.2,0.7,2.3,1.5,3.3,2.5L217.6,197.9z"/>
					<path class="st5" d="M222,218.3l5.2-2.8l-4.7-2.6c0,0.4,0.1,0.8,0.1,1.3C222.6,215.6,222.4,216.9,222,218.3z"/>
					<path class="st5" d="M189.5,213l-3.9,2.1l4.1,2.3c-0.2-1.1-0.3-2.2-0.3-3.3C189.4,213.8,189.4,213.4,189.5,213z"/>
				</g>
			</g>
		</g>
		<g id="gear-4-dark-brown" class="st0">
			<path class="st7" d="M306.2,219.1l-16.8-0.3c-0.4,0-0.7-0.3-0.8-0.7c-0.8-6.6-2.5-13.1-5-19.3c-0.2-0.4,0-0.8,0.3-1l14.4-8.9
				c0.5-0.3,0.7-1.1,0.4-1.6l-7.2-12.9c-0.2-0.4-0.6-0.6-1-0.6c-0.2,0-0.4,0.1-0.6,0.1l-14.7,8.4c-0.1,0.1-0.2,0.1-0.4,0.1
				c-0.2,0-0.5-0.1-0.6-0.3c-3.9-5.3-8.6-10.1-13.7-14.1c-0.3-0.2-0.4-0.7-0.2-1l8.1-15.2c0.3-0.6,0.1-1.3-0.4-1.6l-12.5-7.5
				c-0.2-0.1-0.4-0.2-0.6-0.2c-0.4,0-0.8,0.2-1,0.6l-8.7,14.9c-0.1,0.2-0.4,0.4-0.7,0.4c-0.1,0-0.2,0-0.3-0.1
				c-6-2.6-12.3-4.3-18.7-5.2c-0.4-0.1-0.7-0.4-0.7-0.8l-0.3-17.3c0-0.6-0.5-1.2-1.1-1.2H209c-0.6,0-1.1,0.5-1.2,1.2l-0.3,17.3
				c0,0.4-0.3,0.7-0.7,0.8c-6.4,0.8-12.7,2.6-18.7,5.2c-0.1,0-0.2,0.1-0.3,0.1c-0.3,0-0.5-0.1-0.7-0.4l-8.7-14.9
				c-0.2-0.3-0.6-0.6-1-0.6c-0.2,0-0.4,0.1-0.6,0.2l-12.5,7.5c-0.5,0.3-0.7,1-0.4,1.6l8.1,15.2c0.2,0.4,0.1,0.8-0.2,1
				c-5.2,4.1-9.8,8.8-13.7,14.1c-0.1,0.2-0.4,0.3-0.6,0.3c-0.1,0-0.3,0-0.4-0.1l-14.7-8.4c-0.2-0.1-0.4-0.1-0.6-0.1
				c-0.4,0-0.8,0.2-1,0.6l-7.2,12.9c-0.3,0.6-0.1,1.3,0.4,1.6l14.4,8.9c0.3,0.2,0.5,0.6,0.3,1c-2.5,6.2-4.2,12.7-5,19.3
				c0,0.4-0.4,0.7-0.8,0.7l-16.8,0.3c-0.6,0-1.1,0.5-1.1,1.2v14.9c0,0.6,0.5,1.2,1.1,1.2l16.8,0.3c0.4,0,0.7,0.3,0.8,0.7
				c0.8,6.6,2.5,13.1,5,19.3c0.1,0.4,0,0.8-0.3,1l-14.4,9c-0.5,0.3-0.7,1-0.4,1.6l7.2,12.9c0.2,0.4,0.6,0.6,1,0.6
				c0.2,0,0.4,0,0.6-0.1l14.7-8.4c0.1-0.1,0.2-0.1,0.4-0.1c0.2,0,0.5,0.1,0.6,0.3c3.9,5.3,8.6,10.1,13.7,14.1c0.3,0.2,0.4,0.7,0.2,1
				l-8.1,15.2c-0.3,0.6-0.1,1.3,0.4,1.6l12.5,7.5c0.2,0.1,0.4,0.2,0.6,0.2c0.4,0,0.8-0.2,1-0.6l8.7-14.8c0.1-0.2,0.4-0.4,0.7-0.4
				c0.1,0,0.2,0,0.3,0.1c6,2.6,12.3,4.3,18.7,5.2c0.4,0,0.7,0.4,0.7,0.8l0.3,17.3c0,0.6,0.5,1.2,1.2,1.2h14.5c0.6,0,1.1-0.5,1.1-1.2
				l0.3-17.3c0-0.4,0.3-0.7,0.7-0.8c6.4-0.9,12.7-2.6,18.7-5.2c0.1,0,0.2-0.1,0.3-0.1c0.3,0,0.5,0.1,0.7,0.4l8.7,14.8
				c0.2,0.4,0.6,0.6,1,0.6c0.2,0,0.4-0.1,0.6-0.2l12.5-7.5c0.5-0.3,0.7-1,0.4-1.6l-8.1-15.2c-0.2-0.4-0.1-0.8,0.2-1
				c5.1-4.1,9.8-8.8,13.7-14.1c0.1-0.2,0.4-0.3,0.6-0.3c0.1,0,0.3,0,0.4,0.1l14.7,8.4c0.2,0.1,0.4,0.1,0.6,0.1c0.4,0,0.8-0.2,1-0.6
				l7.2-12.9c0.3-0.6,0.1-1.3-0.4-1.6l-14.4-9c-0.3-0.2-0.5-0.6-0.3-1c2.5-6.2,4.2-12.7,5-19.3c0.1-0.4,0.4-0.7,0.8-0.7l16.8-0.3
				c0.6,0,1.1-0.5,1.1-1.2v-14.9C307.3,219.6,306.8,219.1,306.2,219.1z M216.2,278.3c-27.1,0-49-22.6-49-50.6
				c0-27.9,22-50.6,49-50.6c27.1,0,49.1,22.7,49.1,50.6C265.3,255.6,243.3,278.3,216.2,278.3z"/>
		</g>
		<g id="gear-3-dark-brown" class="st0">
			<path class="st8" d="M50.7,238.4v-48.5l46.7-4.9c2.8-9.3,6.7-18.4,11.5-27.3l-29.7-36.4l34-34l36.4,29.7
				c8.5-4.9,17.6-8.7,27.3-11.5l4.9-46.7h48.5l4.9,46.7c9.3,2.8,18.4,6.7,27.3,11.5l36.4-29.7l34,34l-29.7,36.4
				c4.9,8.9,8.7,18,11.5,27.3l46.7,4.9v48.5l-46.7,4.9c-2.8,9.7-6.7,18.8-11.5,27.3l29.7,36.4l-34,34l-36.4-29.7
				c-8.9,4.9-18,8.7-27.3,11.5l-4.9,46.7h-48.5l-4.9-46.7c-9.7-2.8-18.8-6.7-27.3-11.5l-36.4,29.7l-34-34l29.7-36.4
				c-4.9-8.5-8.7-17.6-11.5-27.3L50.7,238.4z M161.1,214.1c0,12.5,4.3,23.2,13,31.9c8.7,8.7,19.3,13,31.9,13
				c12.5,0,23.2-4.3,31.9-13c8.7-8.7,13-19.3,13-31.9c0-12.5-4.3-23.2-13-31.9c-8.7-8.7-19.3-13-31.9-13s-23.2,4.3-31.9,13
				S161.1,201.6,161.1,214.1L161.1,214.1z"/>
		</g>
		<g id="gear-2-dark-brown" class="st0">
			<g class="st1">
				<path class="st9" d="M302.4,186.4c-2.1-7.3-5-14.3-8.6-20.9l16.6-35c-6.2-7.7-13.2-14.7-20.9-20.9l-35,16.6
					c-6.5-3.6-13.5-6.5-20.9-8.6l-13-36.6c-4.8-0.5-9.8-0.9-14.7-0.9c-5,0-9.9,0.3-14.7,0.9l-13,36.6c-7.3,2.1-14.3,5-20.8,8.6
					l-35-16.6c-7.7,6.2-14.7,13.2-20.9,20.9l16.6,35c-3.6,6.5-6.5,13.5-8.6,20.9l-36.6,13c-0.5,4.8-0.9,9.8-0.9,14.7
					c0,5,0.3,9.9,0.9,14.7l36.6,13c2.1,7.3,5,14.3,8.6,20.9l-16.6,35c6.2,7.7,13.2,14.7,20.9,20.9l35-16.6
					c6.5,3.6,13.5,6.5,20.9,8.6l13,36.6c4.8,0.5,9.7,0.8,14.7,0.8c5,0,9.9-0.3,14.7-0.9l13-36.6c7.3-2.1,14.3-5,20.9-8.6l35,16.6
					c7.7-6.2,14.7-13.2,20.9-20.9l-16.6-35c3.6-6.5,6.5-13.5,8.6-20.9l36.6-13c0.5-4.8,0.8-9.7,0.8-14.7c0-5-0.3-9.9-0.9-14.7
					L302.4,186.4z M206,281.1c-37,0-67-30-67-67s30-67,67-67s67,30,67,67S243,281.1,206,281.1z"/>
			</g>
		</g>
		<g id="gear-1-dark-brown" class="st0">
			<g class="st1">
				<path class="st10" d="M339.1,228.9c0.5-4.8,0.8-9.7,0.8-14.7c0-5-0.3-9.9-0.9-14.7l-36.6-13c-2.1-7.3-5-14.3-8.6-20.9l16.6-35
					c-6.2-7.7-13.2-14.7-20.9-20.9l-35,16.6c-6.5-3.6-13.5-6.5-20.9-8.6l-13-36.6c-4.8-0.5-9.8-0.9-14.7-0.9c-5,0-9.9,0.3-14.7,0.9
					l-13,36.6c-7.3,2.1-14.3,5-20.8,8.6l-35-16.6c-7.7,6.2-14.7,13.2-20.9,20.9l16.6,35c-3.6,6.5-6.5,13.5-8.6,20.9l-36.6,13
					c-0.5,4.8-0.9,9.8-0.9,14.7c0,5,0.3,9.9,0.9,14.7l36.6,13c2.1,7.3,5,14.3,8.6,20.9l-16.6,35c6.2,7.7,13.2,14.7,20.9,20.9
					l35-16.6c6.5,3.6,13.5,6.5,20.9,8.6l13,36.6c4.8,0.5,9.7,0.8,14.7,0.8c5,0,9.9-0.3,14.7-0.9l13-36.6c7.3-2.1,14.3-5,20.9-8.6
					l35,16.6c7.7-6.2,14.7-13.2,20.9-20.9l-16.6-35c3.6-6.5,6.5-13.5,8.6-20.9L339.1,228.9z M288.5,225.8h-16.6
					c-4.9,27.6-26.6,49.4-54.2,54.2v14.8h-23.4v-14.8c-27.6-4.9-49.4-26.6-54.2-54.2h-16.6v-23.4h16.6c4.9-27.6,26.6-49.4,54.2-54.2
					v-14.8h23.4v14.8c27.6,4.9,49.4,26.6,54.2,54.2h16.6V225.8z"/>
				<path class="st10" d="M217.7,182.8v19.7h19.7C234,193.4,226.8,186.1,217.7,182.8z"/>
				<path class="st10" d="M194.3,182.8c-9.1,3.4-16.3,10.6-19.7,19.7h19.7V182.8z"/>
				<path class="st10" d="M217.7,245.5c9.1-3.4,16.3-10.6,19.7-19.7h-19.7V245.5z"/>
				<path class="st10" d="M174.6,225.8c3.4,9.1,10.6,16.3,19.7,19.7v-19.7H174.6z"/>
				<path class="st10" d="M206,180.7c4.1,0,8.1,0.7,11.7,2.1v-34.5c-3.8-0.7-7.7-1-11.7-1c-4,0-7.9,0.4-11.7,1v34.5
					C197.9,181.4,201.9,180.7,206,180.7z"/>
				<path class="st10" d="M206,247.6c-4.1,0-8.1-0.7-11.7-2.1v34.5c3.8,0.7,7.7,1,11.7,1c4,0,7.9-0.4,11.7-1v-34.5
					C214,246.9,210.1,247.6,206,247.6z"/>
				<path class="st10" d="M217.7,148.2v-14.8h-23.4v14.8c3.8-0.7,7.7-1,11.7-1C210,147.2,213.9,147.5,217.7,148.2z"/>
				<path class="st10" d="M204.8,202.4c0.3,0,0.7-0.1,1.1-0.1s0.7,0,1.1,0.1h10.8v-19.7c-3.6-1.4-7.6-2.1-11.7-2.1
					c-4.1,0-8.1,0.7-11.7,2.1v19.7H204.8z"/>
				<path class="st10" d="M194.3,280.1v14.8h23.4v-14.8c-3.8,0.7-7.7,1-11.7,1C202,281.1,198.1,280.7,194.3,280.1z"/>
				<path class="st10" d="M194.3,225.8v19.7c3.6,1.4,7.6,2.1,11.7,2.1c4.1,0,8.1-0.7,11.7-2.1v-19.7H194.3z"/>
				<path class="st10" d="M271.9,202.4h-34.5c1.4,3.6,2.1,7.6,2.1,11.7s-0.7,8.1-2.1,11.7h34.5c0.7-3.8,1-7.7,1-11.7
					S272.6,206.2,271.9,202.4z"/>
				<path class="st10" d="M172.5,214.1c0-4.1,0.7-8.1,2.1-11.7h-34.5c-0.7,3.8-1,7.7-1,11.7s0.4,7.9,1,11.7h34.5
					C173.2,222.2,172.5,218.2,172.5,214.1z"/>
				<path class="st10" d="M194.3,202.4h-19.7c-1.4,3.6-2.1,7.6-2.1,11.7s0.7,8.1,2.1,11.7h19.7V202.4z"/>
				<path class="st10" d="M272.9,214.1c0,4-0.4,7.9-1,11.7h16.6v-23.4h-16.6C272.6,206.2,272.9,210.1,272.9,214.1z"/>
				<path class="st10" d="M140.1,202.4h-16.6v23.4h16.6c-0.7-3.8-1-7.7-1-11.7S139.4,206.2,140.1,202.4z"/>
				<path class="st10" d="M217.7,225.8h19.7c1.4-3.6,2.1-7.6,2.1-11.7s-0.7-8.1-2.1-11.7h-19.7V225.8z"/>
				<path class="st10" d="M216.3,212.8c0,5.8-4.7,10.4-10.4,10.4s-10.4-4.7-10.4-10.4c0-5.4,4.1-9.8,9.4-10.4h-10.5v23.4h23.4v-23.4
					h-10.8C212.2,203,216.3,207.4,216.3,212.8z"/>
			</g>
		</g>
	</g>
	<g id="light-brown" class="st0">
		<g id="gear-5-light-brown" class="st1">
			<g id="svg_3_3_">
				<path id="svg_4_3_" class="st11" d="M99.9,57.8l14.8,42.9l0,0c-7.8,6.2-14.9,13-21.3,20.4l0,0l-43.1-15.7l-16.8,27.5l34.7,29.4
					l0.1,0c-3.7,9-6.5,18.4-8.3,27.9l-0.1-0.1L14.2,198l-0.8,31.8l45.4,8c1.3,9.4,3.6,18.7,6.9,27.9l0,0l-36.3,29.3l15.4,27.6
					l43.9-15.6l0,0c6.1,7.6,12.8,14.4,20.1,20.4l-17,42.9l27.5,15.9l30.6-34.9l0-0.1c9.1,3.4,18.5,6,28.1,7.5l0,0.1l6.8,45l32.3,0.1
					l9.1-45l0,0c9.6-1.5,19.1-4,28.5-7.4l0,0l28.8,35l28.3-15.9l-14.8-42.9l0,0c7.8-6.2,14.9-13,21.3-20.4l43.1,15.7l16.8-27.5
					L343.7,266c3.7-9,6.5-18.4,8.3-27.9l45.8-7.8l0.8-31.8l-45.4-8c-1.3-9.4-3.6-18.7-6.9-27.9l36.3-29.2l-15.4-27.6l-43.9,15.6
					c-6.1-7.6-12.9-14.4-20.2-20.4l17-42.9l-27.5-15.9l-30.7,35c-9.1-3.4-18.5-5.9-28.1-7.5l-6.8-45l-32.3-0.1l-9.2,45
					c-9.6,1.5-19.1,4-28.5,7.5l0,0l-28.8-35L99.9,57.8L99.9,57.8z M151.6,117c55.2-30.9,124.3-12.4,154.3,41.2
					c30,53.7,9.6,122.2-45.6,153c-55.2,30.9-124.2,12.4-154.3-41.2S96.5,147.9,151.6,117z"/>
			</g>
			<g id="Layer_8_copy_3">
				<g>
					<path class="st11" d="M195.9,249.3l-3.2,93.8l20,0.7l3.2-94.4c-3.2,0.9-6.5,1.4-9.9,1.4C202.5,250.7,199.1,250.2,195.9,249.3z"
						/>
					<path class="st12" d="M214.2,199.8c-2.4-1.4-5.2-2.2-8.2-2.2c-2.7,0-5.3,0.7-7.5,1.8l8.1,4.5L214.2,199.8z"/>
					<path class="st11" d="M218.3,179.7L221.9,73l-20-0.7l-3.6,106c2.5-0.5,5-0.8,7.7-0.8C210.3,177.6,214.4,178.3,218.3,179.7z"/>
					<path class="st12" d="M200.6,229.8c1.7,0.6,3.5,0.9,5.4,0.9c2,0,3.9-0.4,5.6-1l-5.3-3L200.6,229.8z"/>
					<path class="st11" d="M231.1,240.6l93.9,52.7l9.8-17.4l-93.5-52.4C239.6,230.1,236,236,231.1,240.6z"/>
					<path class="st12" d="M197.6,199.9c-4.6,2.7-7.7,7.6-8.1,13.2l7.8-4.2L197.6,199.9z"/>
					<path class="st12" d="M216.7,226.8c2.6-2.2,4.5-5.1,5.3-8.5l-5.1,2.8L216.7,226.8z"/>
					<path class="st11" d="M87.4,137.1l-9.8,17.4l92.6,51.9c1.4-6.8,4.8-12.8,9.4-17.7L87.4,137.1z"/>
					<path class="st12" d="M206.5,203.9l-8.1-4.5c-0.3,0.2-0.6,0.3-0.9,0.5l-0.3,9L206.5,203.9z"/>
					<path class="st12" d="M216.9,221l-10.6,5.7l5.3,3c1.9-0.7,3.6-1.7,5.1-2.9L216.9,221z"/>
					<path class="st12" d="M189.7,217.4c0.9,4.3,3.4,8,6.9,10.4l0.2-6.4L189.7,217.4z"/>
					<path class="st11" d="M334.7,157.8l-9.5-17.6l-92.1,49.4c4.5,4.9,7.6,11.1,8.8,18L334.7,157.8z"/>
					<path class="st11" d="M170.5,223.2L70.1,277.1l9.5,17.6l101.1-54.2C175.8,235.8,172.2,229.9,170.5,223.2z"/>
					<path class="st12" d="M222.5,212.9c-0.3-4.2-2.2-7.9-5-10.6l-0.3,7.7L222.5,212.9z"/>
					<path class="st12" d="M217.2,209.9l0.3-7.7c-1-1-2.1-1.8-3.3-2.5l-7.7,4.1L217.2,209.9z"/>
					<path class="st12" d="M196.8,221.4l-0.2,6.4c1.2,0.8,2.5,1.5,3.9,2l5.7-3.1L196.8,221.4z"/>
					<path class="st12" d="M197.3,208.9l-7.8,4.2c0,0.4-0.1,0.7-0.1,1.1c0,1.1,0.1,2.2,0.3,3.3l7.1,4L197.3,208.9z"/>
					<path class="st12" d="M216.9,221l5.1-2.8c0.3-1.3,0.5-2.7,0.5-4.1c0-0.4,0-0.8-0.1-1.3l-5.3-2.9L216.9,221z"/>
					<polygon class="st12" points="206.5,203.9 197.3,208.9 196.8,221.4 206.3,226.7 216.9,221 217.2,209.9 					"/>
					<path class="st11" d="M180.6,240.5c4.2,4.1,9.5,7.1,15.3,8.8l0.6-17.3L180.6,240.5z"/>
					<path class="st11" d="M170.2,206.5c-0.5,2.5-0.8,5-0.8,7.6c0,3.1,0.4,6.2,1.1,9.1l15.1-8.1L170.2,206.5z"/>
					<path class="st11" d="M216.5,232.4l-0.6,16.9c5.8-1.6,11-4.7,15.2-8.7L216.5,232.4z"/>
					<path class="st11" d="M233.1,189.6c-4-4.4-9.1-7.9-14.8-9.9l-0.6,18.2L233.1,189.6z"/>
					<path class="st11" d="M198.3,178.4c-7.3,1.6-13.7,5.3-18.7,10.5l18,10.1L198.3,178.4z"/>
					<path class="st11" d="M241.3,223.4c0.8-3,1.2-6.1,1.2-9.3c0-2.2-0.2-4.4-0.6-6.6l-14.8,7.9L241.3,223.4z"/>
					<path class="st11" d="M198.4,199.4c2.3-1.2,4.8-1.8,7.5-1.8c3,0,5.8,0.8,8.2,2.2l3.4-1.8l0.6-18.2c-3.8-1.4-8-2.1-12.3-2.1
						c-2.6,0-5.2,0.3-7.7,0.8l-0.7,20.5L198.4,199.4z"/>
					<path class="st11" d="M211.6,229.7c-1.8,0.6-3.7,1-5.6,1c-1.9,0-3.7-0.3-5.4-0.9l-4.1,2.2l-0.6,17.3c3.2,0.9,6.6,1.4,10.1,1.4
						c3.4,0,6.8-0.5,9.9-1.4l0.6-16.9L211.6,229.7z"/>
					<path class="st11" d="M222,218.3c-0.9,3.4-2.8,6.3-5.3,8.5l-0.2,5.6l14.7,8.2c4.9-4.6,8.5-10.5,10.2-17.2l-14.2-7.9L222,218.3z
						"/>
					<path class="st11" d="M189.5,213c0.4-5.6,3.5-10.5,8.1-13.2l0-1l-18-10.1c-4.6,4.8-7.9,10.9-9.4,17.7l15.4,8.6L189.5,213z"/>
					<path class="st11" d="M197.6,198.9l0,1c0.3-0.2,0.6-0.3,0.9-0.5L197.6,198.9z"/>
					<path class="st11" d="M211.6,229.7l4.9,2.7l0.2-5.6C215.2,228,213.5,229,211.6,229.7z"/>
					<path class="st11" d="M196.6,227.8c-3.5-2.4-6-6.1-6.9-10.4l-4.1-2.3l-15.1,8.1c1.7,6.7,5.3,12.6,10.1,17.3l15.8-8.5
						L196.6,227.8z"/>
					<path class="st11" d="M217.5,202.2c2.8,2.7,4.7,6.5,5,10.6l4.7,2.6l14.8-7.9c-1.2-6.8-4.4-13-8.8-18l-15.5,8.3L217.5,202.2z"/>
					<path class="st11" d="M196.5,232l4.1-2.2c-1.4-0.5-2.7-1.2-3.9-2L196.5,232z"/>
					<path class="st11" d="M217.6,197.9l-3.4,1.8c1.2,0.7,2.3,1.5,3.3,2.5L217.6,197.9z"/>
					<path class="st11" d="M222,218.3l5.2-2.8l-4.7-2.6c0,0.4,0.1,0.8,0.1,1.3C222.6,215.6,222.4,216.9,222,218.3z"/>
					<path class="st11" d="M189.5,213l-3.9,2.1l4.1,2.3c-0.2-1.1-0.3-2.2-0.3-3.3C189.4,213.8,189.4,213.4,189.5,213z"/>
				</g>
			</g>
		</g>
		<g id="gear-4-light-brown">
			<path class="st13" d="M306.2,219.1l-16.8-0.3c-0.4,0-0.7-0.3-0.8-0.7c-0.8-6.6-2.5-13.1-5-19.3c-0.2-0.4,0-0.8,0.3-1l14.4-8.9
				c0.5-0.3,0.7-1.1,0.4-1.6l-7.2-12.9c-0.2-0.4-0.6-0.6-1-0.6c-0.2,0-0.4,0.1-0.6,0.1l-14.7,8.4c-0.1,0.1-0.2,0.1-0.4,0.1
				c-0.2,0-0.5-0.1-0.6-0.3c-3.9-5.3-8.6-10.1-13.7-14.1c-0.3-0.2-0.4-0.7-0.2-1l8.1-15.2c0.3-0.6,0.1-1.3-0.4-1.6l-12.5-7.5
				c-0.2-0.1-0.4-0.2-0.6-0.2c-0.4,0-0.8,0.2-1,0.6l-8.7,14.9c-0.1,0.2-0.4,0.4-0.7,0.4c-0.1,0-0.2,0-0.3-0.1
				c-6-2.6-12.3-4.3-18.7-5.2c-0.4-0.1-0.7-0.4-0.7-0.8l-0.3-17.3c0-0.6-0.5-1.2-1.1-1.2H209c-0.6,0-1.1,0.5-1.2,1.2l-0.3,17.3
				c0,0.4-0.3,0.7-0.7,0.8c-6.4,0.8-12.7,2.6-18.7,5.2c-0.1,0-0.2,0.1-0.3,0.1c-0.3,0-0.5-0.1-0.7-0.4l-8.7-14.9
				c-0.2-0.3-0.6-0.6-1-0.6c-0.2,0-0.4,0.1-0.6,0.2l-12.5,7.5c-0.5,0.3-0.7,1-0.4,1.6l8.1,15.2c0.2,0.4,0.1,0.8-0.2,1
				c-5.2,4.1-9.8,8.8-13.7,14.1c-0.1,0.2-0.4,0.3-0.6,0.3c-0.1,0-0.3,0-0.4-0.1l-14.7-8.4c-0.2-0.1-0.4-0.1-0.6-0.1
				c-0.4,0-0.8,0.2-1,0.6l-7.2,12.9c-0.3,0.6-0.1,1.3,0.4,1.6l14.4,8.9c0.3,0.2,0.5,0.6,0.3,1c-2.5,6.2-4.2,12.7-5,19.3
				c0,0.4-0.4,0.7-0.8,0.7l-16.8,0.3c-0.6,0-1.1,0.5-1.1,1.2v14.9c0,0.6,0.5,1.2,1.1,1.2l16.8,0.3c0.4,0,0.7,0.3,0.8,0.7
				c0.8,6.6,2.5,13.1,5,19.3c0.1,0.4,0,0.8-0.3,1l-14.4,9c-0.5,0.3-0.7,1-0.4,1.6l7.2,12.9c0.2,0.4,0.6,0.6,1,0.6
				c0.2,0,0.4,0,0.6-0.1l14.7-8.4c0.1-0.1,0.2-0.1,0.4-0.1c0.2,0,0.5,0.1,0.6,0.3c3.9,5.3,8.6,10.1,13.7,14.1c0.3,0.2,0.4,0.7,0.2,1
				l-8.1,15.2c-0.3,0.6-0.1,1.3,0.4,1.6l12.5,7.5c0.2,0.1,0.4,0.2,0.6,0.2c0.4,0,0.8-0.2,1-0.6l8.7-14.8c0.1-0.2,0.4-0.4,0.7-0.4
				c0.1,0,0.2,0,0.3,0.1c6,2.6,12.3,4.3,18.7,5.2c0.4,0,0.7,0.4,0.7,0.8l0.3,17.3c0,0.6,0.5,1.2,1.2,1.2h14.5c0.6,0,1.1-0.5,1.1-1.2
				l0.3-17.3c0-0.4,0.3-0.7,0.7-0.8c6.4-0.9,12.7-2.6,18.7-5.2c0.1,0,0.2-0.1,0.3-0.1c0.3,0,0.5,0.1,0.7,0.4l8.7,14.8
				c0.2,0.4,0.6,0.6,1,0.6c0.2,0,0.4-0.1,0.6-0.2l12.5-7.5c0.5-0.3,0.7-1,0.4-1.6l-8.1-15.2c-0.2-0.4-0.1-0.8,0.2-1
				c5.1-4.1,9.8-8.8,13.7-14.1c0.1-0.2,0.4-0.3,0.6-0.3c0.1,0,0.3,0,0.4,0.1l14.7,8.4c0.2,0.1,0.4,0.1,0.6,0.1c0.4,0,0.8-0.2,1-0.6
				l7.2-12.9c0.3-0.6,0.1-1.3-0.4-1.6l-14.4-9c-0.3-0.2-0.5-0.6-0.3-1c2.5-6.2,4.2-12.7,5-19.3c0.1-0.4,0.4-0.7,0.8-0.7l16.8-0.3
				c0.6,0,1.1-0.5,1.1-1.2v-14.9C307.3,219.6,306.8,219.1,306.2,219.1z M216.2,278.3c-27.1,0-49-22.6-49-50.6
				c0-27.9,22-50.6,49-50.6c27.1,0,49.1,22.7,49.1,50.6C265.3,255.6,243.3,278.3,216.2,278.3z"/>
		</g>
		<g id="gear-3-light-brown">
			<path class="st13" d="M50.7,238.4v-48.5l46.7-4.9c2.8-9.3,6.7-18.4,11.5-27.3l-29.7-36.4l34-34l36.4,29.7
				c8.5-4.9,17.6-8.7,27.3-11.5l4.9-46.7h48.5l4.9,46.7c9.3,2.8,18.4,6.7,27.3,11.5l36.4-29.7l34,34l-29.7,36.4
				c4.9,8.9,8.7,18,11.5,27.3l46.7,4.9v48.5l-46.7,4.9c-2.8,9.7-6.7,18.8-11.5,27.3l29.7,36.4l-34,34l-36.4-29.7
				c-8.9,4.9-18,8.7-27.3,11.5l-4.9,46.7h-48.5l-4.9-46.7c-9.7-2.8-18.8-6.7-27.3-11.5l-36.4,29.7l-34-34l29.7-36.4
				c-4.9-8.5-8.7-17.6-11.5-27.3L50.7,238.4z M161.1,214.1c0,12.5,4.3,23.2,13,31.9c8.7,8.7,19.3,13,31.9,13
				c12.5,0,23.2-4.3,31.9-13c8.7-8.7,13-19.3,13-31.9c0-12.5-4.3-23.2-13-31.9c-8.7-8.7-19.3-13-31.9-13s-23.2,4.3-31.9,13
				S161.1,201.6,161.1,214.1L161.1,214.1z"/>
		</g>
		<g id="gear-2-light-brown">
			<g class="st1">
				<path class="st11" d="M302.4,186.4c-2.1-7.3-5-14.3-8.6-20.9l16.6-35c-6.2-7.7-13.2-14.7-20.9-20.9l-35,16.6
					c-6.5-3.6-13.5-6.5-20.9-8.6l-13-36.6c-4.8-0.5-9.8-0.9-14.7-0.9c-5,0-9.9,0.3-14.7,0.9l-13,36.6c-7.3,2.1-14.3,5-20.8,8.6
					l-35-16.6c-7.7,6.2-14.7,13.2-20.9,20.9l16.6,35c-3.6,6.5-6.5,13.5-8.6,20.9l-36.6,13c-0.5,4.8-0.9,9.8-0.9,14.7
					c0,5,0.3,9.9,0.9,14.7l36.6,13c2.1,7.3,5,14.3,8.6,20.9l-16.6,35c6.2,7.7,13.2,14.7,20.9,20.9l35-16.6
					c6.5,3.6,13.5,6.5,20.9,8.6l13,36.6c4.8,0.5,9.7,0.8,14.7,0.8c5,0,9.9-0.3,14.7-0.9l13-36.6c7.3-2.1,14.3-5,20.9-8.6l35,16.6
					c7.7-6.2,14.7-13.2,20.9-20.9l-16.6-35c3.6-6.5,6.5-13.5,8.6-20.9l36.6-13c0.5-4.8,0.8-9.7,0.8-14.7c0-5-0.3-9.9-0.9-14.7
					L302.4,186.4z M206,281.1c-37,0-67-30-67-67s30-67,67-67s67,30,67,67S243,281.1,206,281.1z"/>
			</g>
		</g>
		<g id="gear-1-light-brown">
			<g class="st1">
				<path class="st11" d="M339.1,228.9c0.5-4.8,0.8-9.7,0.8-14.7c0-5-0.3-9.9-0.9-14.7l-36.6-13c-2.1-7.3-5-14.3-8.6-20.9l16.6-35
					c-6.2-7.7-13.2-14.7-20.9-20.9l-35,16.6c-6.5-3.6-13.5-6.5-20.9-8.6l-13-36.6c-4.8-0.5-9.8-0.9-14.7-0.9c-5,0-9.9,0.3-14.7,0.9
					l-13,36.6c-7.3,2.1-14.3,5-20.8,8.6l-35-16.6c-7.7,6.2-14.7,13.2-20.9,20.9l16.6,35c-3.6,6.5-6.5,13.5-8.6,20.9l-36.6,13
					c-0.5,4.8-0.9,9.8-0.9,14.7c0,5,0.3,9.9,0.9,14.7l36.6,13c2.1,7.3,5,14.3,8.6,20.9l-16.6,35c6.2,7.7,13.2,14.7,20.9,20.9
					l35-16.6c6.5,3.6,13.5,6.5,20.9,8.6l13,36.6c4.8,0.5,9.7,0.8,14.7,0.8c5,0,9.9-0.3,14.7-0.9l13-36.6c7.3-2.1,14.3-5,20.9-8.6
					l35,16.6c7.7-6.2,14.7-13.2,20.9-20.9l-16.6-35c3.6-6.5,6.5-13.5,8.6-20.9L339.1,228.9z M288.5,225.8h-16.6
					c-4.9,27.6-26.6,49.4-54.2,54.2v14.8h-23.4v-14.8c-27.6-4.9-49.4-26.6-54.2-54.2h-16.6v-23.4h16.6c4.9-27.6,26.6-49.4,54.2-54.2
					v-14.8h23.4v14.8c27.6,4.9,49.4,26.6,54.2,54.2h16.6V225.8z"/>
				<path class="st11" d="M217.7,182.8v19.7h19.7C234,193.4,226.8,186.1,217.7,182.8z"/>
				<path class="st11" d="M194.3,182.8c-9.1,3.4-16.3,10.6-19.7,19.7h19.7V182.8z"/>
				<path class="st11" d="M217.7,245.5c9.1-3.4,16.3-10.6,19.7-19.7h-19.7V245.5z"/>
				<path class="st11" d="M174.6,225.8c3.4,9.1,10.6,16.3,19.7,19.7v-19.7H174.6z"/>
				<path class="st11" d="M206,180.7c4.1,0,8.1,0.7,11.7,2.1v-34.5c-3.8-0.7-7.7-1-11.7-1c-4,0-7.9,0.4-11.7,1v34.5
					C197.9,181.4,201.9,180.7,206,180.7z"/>
				<path class="st11" d="M206,247.6c-4.1,0-8.1-0.7-11.7-2.1v34.5c3.8,0.7,7.7,1,11.7,1c4,0,7.9-0.4,11.7-1v-34.5
					C214,246.9,210.1,247.6,206,247.6z"/>
				<path class="st11" d="M217.7,148.2v-14.8h-23.4v14.8c3.8-0.7,7.7-1,11.7-1C210,147.2,213.9,147.5,217.7,148.2z"/>
				<path class="st11" d="M204.8,202.4c0.3,0,0.7-0.1,1.1-0.1s0.7,0,1.1,0.1h10.8v-19.7c-3.6-1.4-7.6-2.1-11.7-2.1
					c-4.1,0-8.1,0.7-11.7,2.1v19.7H204.8z"/>
				<path class="st11" d="M194.3,280.1v14.8h23.4v-14.8c-3.8,0.7-7.7,1-11.7,1C202,281.1,198.1,280.7,194.3,280.1z"/>
				<path class="st11" d="M194.3,225.8v19.7c3.6,1.4,7.6,2.1,11.7,2.1c4.1,0,8.1-0.7,11.7-2.1v-19.7H194.3z"/>
				<path class="st11" d="M271.9,202.4h-34.5c1.4,3.6,2.1,7.6,2.1,11.7s-0.7,8.1-2.1,11.7h34.5c0.7-3.8,1-7.7,1-11.7
					S272.6,206.2,271.9,202.4z"/>
				<path class="st11" d="M172.5,214.1c0-4.1,0.7-8.1,2.1-11.7h-34.5c-0.7,3.8-1,7.7-1,11.7s0.4,7.9,1,11.7h34.5
					C173.2,222.2,172.5,218.2,172.5,214.1z"/>
				<path class="st11" d="M194.3,202.4h-19.7c-1.4,3.6-2.1,7.6-2.1,11.7s0.7,8.1,2.1,11.7h19.7V202.4z"/>
				<path class="st11" d="M272.9,214.1c0,4-0.4,7.9-1,11.7h16.6v-23.4h-16.6C272.6,206.2,272.9,210.1,272.9,214.1z"/>
				<path class="st11" d="M140.1,202.4h-16.6v23.4h16.6c-0.7-3.8-1-7.7-1-11.7S139.4,206.2,140.1,202.4z"/>
				<path class="st11" d="M217.7,225.8h19.7c1.4-3.6,2.1-7.6,2.1-11.7s-0.7-8.1-2.1-11.7h-19.7V225.8z"/>
				<path class="st11" d="M216.3,212.8c0,5.8-4.7,10.4-10.4,10.4s-10.4-4.7-10.4-10.4c0-5.4,4.1-9.8,9.4-10.4h-10.5v23.4h23.4v-23.4
					h-10.8C212.2,203,216.3,207.4,216.3,212.8z"/>
			</g>
		</g>
	</g>
	<g id="dark-blue" class="st0">
		<g id="gear-5-dark-blue" class="st1">
			<g id="svg_3_4_">
				<path id="svg_4_4_" class="st14" d="M99.9,57.8l14.8,42.9l0,0c-7.8,6.2-14.9,13-21.3,20.4l0,0l-43.1-15.7l-16.8,27.5l34.7,29.4
					l0.1,0c-3.7,9-6.5,18.4-8.3,27.9l-0.1-0.1L14.2,198l-0.8,31.8l45.4,8c1.3,9.4,3.6,18.7,6.9,27.9l0,0l-36.3,29.3l15.4,27.6
					l43.9-15.6l0,0c6.1,7.6,12.8,14.4,20.1,20.4l-17,42.9l27.5,15.9l30.6-34.9l0-0.1c9.1,3.4,18.5,6,28.1,7.5l0,0.1l6.8,45l32.3,0.1
					l9.1-45l0,0c9.6-1.5,19.1-4,28.5-7.4l0,0l28.8,35l28.3-15.9l-14.8-42.9l0,0c7.8-6.2,14.9-13,21.3-20.4l43.1,15.7l16.8-27.5
					L343.7,266c3.7-9,6.5-18.4,8.3-27.9l45.8-7.8l0.8-31.8l-45.4-8c-1.3-9.4-3.6-18.7-6.9-27.9l36.3-29.2l-15.4-27.6l-43.9,15.6
					c-6.1-7.6-12.9-14.4-20.2-20.4l17-42.9l-27.5-15.9l-30.7,35c-9.1-3.4-18.5-5.9-28.1-7.5l-6.8-45l-32.3-0.1l-9.2,45
					c-9.6,1.5-19.1,4-28.5,7.5l0,0l-28.8-35L99.9,57.8L99.9,57.8z M151.6,117c55.2-30.9,124.3-12.4,154.3,41.2
					c30,53.7,9.6,122.2-45.6,153c-55.2,30.9-124.2,12.4-154.3-41.2S96.5,147.9,151.6,117z"/>
			</g>
			<g id="Layer_8_copy_4">
				<g>
					<path class="st14" d="M195.9,249.3l-3.2,93.8l20,0.7l3.2-94.4c-3.2,0.9-6.5,1.4-9.9,1.4C202.5,250.7,199.1,250.2,195.9,249.3z"
						/>
					<path class="st15" d="M214.2,199.8c-2.4-1.4-5.2-2.2-8.2-2.2c-2.7,0-5.3,0.7-7.5,1.8l8.1,4.5L214.2,199.8z"/>
					<path class="st14" d="M218.3,179.7L221.9,73l-20-0.7l-3.6,106c2.5-0.5,5-0.8,7.7-0.8C210.3,177.6,214.4,178.3,218.3,179.7z"/>
					<path class="st15" d="M200.6,229.8c1.7,0.6,3.5,0.9,5.4,0.9c2,0,3.9-0.4,5.6-1l-5.3-3L200.6,229.8z"/>
					<path class="st14" d="M231.1,240.6l93.9,52.7l9.8-17.4l-93.5-52.4C239.6,230.1,236,236,231.1,240.6z"/>
					<path class="st15" d="M197.6,199.9c-4.6,2.7-7.7,7.6-8.1,13.2l7.8-4.2L197.6,199.9z"/>
					<path class="st15" d="M216.7,226.8c2.6-2.2,4.5-5.1,5.3-8.5l-5.1,2.8L216.7,226.8z"/>
					<path class="st14" d="M87.4,137.1l-9.8,17.4l92.6,51.9c1.4-6.8,4.8-12.8,9.4-17.7L87.4,137.1z"/>
					<path class="st15" d="M206.5,203.9l-8.1-4.5c-0.3,0.2-0.6,0.3-0.9,0.5l-0.3,9L206.5,203.9z"/>
					<path class="st15" d="M216.9,221l-10.6,5.7l5.3,3c1.9-0.7,3.6-1.7,5.1-2.9L216.9,221z"/>
					<path class="st15" d="M189.7,217.4c0.9,4.3,3.4,8,6.9,10.4l0.2-6.4L189.7,217.4z"/>
					<path class="st14" d="M334.7,157.8l-9.5-17.6l-92.1,49.4c4.5,4.9,7.6,11.1,8.8,18L334.7,157.8z"/>
					<path class="st14" d="M170.5,223.2L70.1,277.1l9.5,17.6l101.1-54.2C175.8,235.8,172.2,229.9,170.5,223.2z"/>
					<path class="st15" d="M222.5,212.9c-0.3-4.2-2.2-7.9-5-10.6l-0.3,7.7L222.5,212.9z"/>
					<path class="st15" d="M217.2,209.9l0.3-7.7c-1-1-2.1-1.8-3.3-2.5l-7.7,4.1L217.2,209.9z"/>
					<path class="st15" d="M196.8,221.4l-0.2,6.4c1.2,0.8,2.5,1.5,3.9,2l5.7-3.1L196.8,221.4z"/>
					<path class="st15" d="M197.3,208.9l-7.8,4.2c0,0.4-0.1,0.7-0.1,1.1c0,1.1,0.1,2.2,0.3,3.3l7.1,4L197.3,208.9z"/>
					<path class="st15" d="M216.9,221l5.1-2.8c0.3-1.3,0.5-2.7,0.5-4.1c0-0.4,0-0.8-0.1-1.3l-5.3-2.9L216.9,221z"/>
					<polygon class="st15" points="206.5,203.9 197.3,208.9 196.8,221.4 206.3,226.7 216.9,221 217.2,209.9 					"/>
					<path class="st14" d="M180.6,240.5c4.2,4.1,9.5,7.1,15.3,8.8l0.6-17.3L180.6,240.5z"/>
					<path class="st14" d="M170.2,206.5c-0.5,2.5-0.8,5-0.8,7.6c0,3.1,0.4,6.2,1.1,9.1l15.1-8.1L170.2,206.5z"/>
					<path class="st14" d="M216.5,232.4l-0.6,16.9c5.8-1.6,11-4.7,15.2-8.7L216.5,232.4z"/>
					<path class="st14" d="M233.1,189.6c-4-4.4-9.1-7.9-14.8-9.9l-0.6,18.2L233.1,189.6z"/>
					<path class="st14" d="M198.3,178.4c-7.3,1.6-13.7,5.3-18.7,10.5l18,10.1L198.3,178.4z"/>
					<path class="st14" d="M241.3,223.4c0.8-3,1.2-6.1,1.2-9.3c0-2.2-0.2-4.4-0.6-6.6l-14.8,7.9L241.3,223.4z"/>
					<path class="st14" d="M198.4,199.4c2.3-1.2,4.8-1.8,7.5-1.8c3,0,5.8,0.8,8.2,2.2l3.4-1.8l0.6-18.2c-3.8-1.4-8-2.1-12.3-2.1
						c-2.6,0-5.2,0.3-7.7,0.8l-0.7,20.5L198.4,199.4z"/>
					<path class="st14" d="M211.6,229.7c-1.8,0.6-3.7,1-5.6,1c-1.9,0-3.7-0.3-5.4-0.9l-4.1,2.2l-0.6,17.3c3.2,0.9,6.6,1.4,10.1,1.4
						c3.4,0,6.8-0.5,9.9-1.4l0.6-16.9L211.6,229.7z"/>
					<path class="st14" d="M222,218.3c-0.9,3.4-2.8,6.3-5.3,8.5l-0.2,5.6l14.7,8.2c4.9-4.6,8.5-10.5,10.2-17.2l-14.2-7.9L222,218.3z
						"/>
					<path class="st14" d="M189.5,213c0.4-5.6,3.5-10.5,8.1-13.2l0-1l-18-10.1c-4.6,4.8-7.9,10.9-9.4,17.7l15.4,8.6L189.5,213z"/>
					<path class="st14" d="M197.6,198.9l0,1c0.3-0.2,0.6-0.3,0.9-0.5L197.6,198.9z"/>
					<path class="st14" d="M211.6,229.7l4.9,2.7l0.2-5.6C215.2,228,213.5,229,211.6,229.7z"/>
					<path class="st14" d="M196.6,227.8c-3.5-2.4-6-6.1-6.9-10.4l-4.1-2.3l-15.1,8.1c1.7,6.7,5.3,12.6,10.1,17.3l15.8-8.5
						L196.6,227.8z"/>
					<path class="st14" d="M217.5,202.2c2.8,2.7,4.7,6.5,5,10.6l4.7,2.6l14.8-7.9c-1.2-6.8-4.4-13-8.8-18l-15.5,8.3L217.5,202.2z"/>
					<path class="st14" d="M196.5,232l4.1-2.2c-1.4-0.5-2.7-1.2-3.9-2L196.5,232z"/>
					<path class="st14" d="M217.6,197.9l-3.4,1.8c1.2,0.7,2.3,1.5,3.3,2.5L217.6,197.9z"/>
					<path class="st14" d="M222,218.3l5.2-2.8l-4.7-2.6c0,0.4,0.1,0.8,0.1,1.3C222.6,215.6,222.4,216.9,222,218.3z"/>
					<path class="st14" d="M189.5,213l-3.9,2.1l4.1,2.3c-0.2-1.1-0.3-2.2-0.3-3.3C189.4,213.8,189.4,213.4,189.5,213z"/>
				</g>
			</g>
		</g>
		<g id="gear-4-dark-blue">
			<path class="st16" d="M306.2,219.1l-16.8-0.3c-0.4,0-0.7-0.3-0.8-0.7c-0.8-6.6-2.5-13.1-5-19.3c-0.2-0.4,0-0.8,0.3-1l14.4-8.9
				c0.5-0.3,0.7-1.1,0.4-1.6l-7.2-12.9c-0.2-0.4-0.6-0.6-1-0.6c-0.2,0-0.4,0.1-0.6,0.1l-14.7,8.4c-0.1,0.1-0.2,0.1-0.4,0.1
				c-0.2,0-0.5-0.1-0.6-0.3c-3.9-5.3-8.6-10.1-13.7-14.1c-0.3-0.2-0.4-0.7-0.2-1l8.1-15.2c0.3-0.6,0.1-1.3-0.4-1.6l-12.5-7.5
				c-0.2-0.1-0.4-0.2-0.6-0.2c-0.4,0-0.8,0.2-1,0.6l-8.7,14.9c-0.1,0.2-0.4,0.4-0.7,0.4c-0.1,0-0.2,0-0.3-0.1
				c-6-2.6-12.3-4.3-18.7-5.2c-0.4-0.1-0.7-0.4-0.7-0.8l-0.3-17.3c0-0.6-0.5-1.2-1.1-1.2H209c-0.6,0-1.1,0.5-1.2,1.2l-0.3,17.3
				c0,0.4-0.3,0.7-0.7,0.8c-6.4,0.8-12.7,2.6-18.7,5.2c-0.1,0-0.2,0.1-0.3,0.1c-0.3,0-0.5-0.1-0.7-0.4l-8.7-14.9
				c-0.2-0.3-0.6-0.6-1-0.6c-0.2,0-0.4,0.1-0.6,0.2l-12.5,7.5c-0.5,0.3-0.7,1-0.4,1.6l8.1,15.2c0.2,0.4,0.1,0.8-0.2,1
				c-5.2,4.1-9.8,8.8-13.7,14.1c-0.1,0.2-0.4,0.3-0.6,0.3c-0.1,0-0.3,0-0.4-0.1l-14.7-8.4c-0.2-0.1-0.4-0.1-0.6-0.1
				c-0.4,0-0.8,0.2-1,0.6l-7.2,12.9c-0.3,0.6-0.1,1.3,0.4,1.6l14.4,8.9c0.3,0.2,0.5,0.6,0.3,1c-2.5,6.2-4.2,12.7-5,19.3
				c0,0.4-0.4,0.7-0.8,0.7l-16.8,0.3c-0.6,0-1.1,0.5-1.1,1.2v14.9c0,0.6,0.5,1.2,1.1,1.2l16.8,0.3c0.4,0,0.7,0.3,0.8,0.7
				c0.8,6.6,2.5,13.1,5,19.3c0.1,0.4,0,0.8-0.3,1l-14.4,9c-0.5,0.3-0.7,1-0.4,1.6l7.2,12.9c0.2,0.4,0.6,0.6,1,0.6
				c0.2,0,0.4,0,0.6-0.1l14.7-8.4c0.1-0.1,0.2-0.1,0.4-0.1c0.2,0,0.5,0.1,0.6,0.3c3.9,5.3,8.6,10.1,13.7,14.1c0.3,0.2,0.4,0.7,0.2,1
				l-8.1,15.2c-0.3,0.6-0.1,1.3,0.4,1.6l12.5,7.5c0.2,0.1,0.4,0.2,0.6,0.2c0.4,0,0.8-0.2,1-0.6l8.7-14.8c0.1-0.2,0.4-0.4,0.7-0.4
				c0.1,0,0.2,0,0.3,0.1c6,2.6,12.3,4.3,18.7,5.2c0.4,0,0.7,0.4,0.7,0.8l0.3,17.3c0,0.6,0.5,1.2,1.2,1.2h14.5c0.6,0,1.1-0.5,1.1-1.2
				l0.3-17.3c0-0.4,0.3-0.7,0.7-0.8c6.4-0.9,12.7-2.6,18.7-5.2c0.1,0,0.2-0.1,0.3-0.1c0.3,0,0.5,0.1,0.7,0.4l8.7,14.8
				c0.2,0.4,0.6,0.6,1,0.6c0.2,0,0.4-0.1,0.6-0.2l12.5-7.5c0.5-0.3,0.7-1,0.4-1.6l-8.1-15.2c-0.2-0.4-0.1-0.8,0.2-1
				c5.1-4.1,9.8-8.8,13.7-14.1c0.1-0.2,0.4-0.3,0.6-0.3c0.1,0,0.3,0,0.4,0.1l14.7,8.4c0.2,0.1,0.4,0.1,0.6,0.1c0.4,0,0.8-0.2,1-0.6
				l7.2-12.9c0.3-0.6,0.1-1.3-0.4-1.6l-14.4-9c-0.3-0.2-0.5-0.6-0.3-1c2.5-6.2,4.2-12.7,5-19.3c0.1-0.4,0.4-0.7,0.8-0.7l16.8-0.3
				c0.6,0,1.1-0.5,1.1-1.2v-14.9C307.3,219.6,306.8,219.1,306.2,219.1z M216.2,278.3c-27.1,0-49-22.6-49-50.6
				c0-27.9,22-50.6,49-50.6c27.1,0,49.1,22.7,49.1,50.6C265.3,255.6,243.3,278.3,216.2,278.3z"/>
		</g>
		<g id="gear-3-dark-blue">
			<path class="st16" d="M50.7,238.4v-48.5l46.7-4.9c2.8-9.3,6.7-18.4,11.5-27.3l-29.7-36.4l34-34l36.4,29.7
				c8.5-4.9,17.6-8.7,27.3-11.5l4.9-46.7h48.5l4.9,46.7c9.3,2.8,18.4,6.7,27.3,11.5l36.4-29.7l34,34l-29.7,36.4
				c4.9,8.9,8.7,18,11.5,27.3l46.7,4.9v48.5l-46.7,4.9c-2.8,9.7-6.7,18.8-11.5,27.3l29.7,36.4l-34,34l-36.4-29.7
				c-8.9,4.9-18,8.7-27.3,11.5l-4.9,46.7h-48.5l-4.9-46.7c-9.7-2.8-18.8-6.7-27.3-11.5l-36.4,29.7l-34-34l29.7-36.4
				c-4.9-8.5-8.7-17.6-11.5-27.3L50.7,238.4z M161.1,214.1c0,12.5,4.3,23.2,13,31.9c8.7,8.7,19.3,13,31.9,13
				c12.5,0,23.2-4.3,31.9-13c8.7-8.7,13-19.3,13-31.9c0-12.5-4.3-23.2-13-31.9c-8.7-8.7-19.3-13-31.9-13s-23.2,4.3-31.9,13
				S161.1,201.6,161.1,214.1L161.1,214.1z"/>
		</g>
		<g id="gear-2-dark-blue">
			<g class="st1">
				<path class="st14" d="M302.4,186.4c-2.1-7.3-5-14.3-8.6-20.9l16.6-35c-6.2-7.7-13.2-14.7-20.9-20.9l-35,16.6
					c-6.5-3.6-13.5-6.5-20.9-8.6l-13-36.6c-4.8-0.5-9.8-0.9-14.7-0.9c-5,0-9.9,0.3-14.7,0.9l-13,36.6c-7.3,2.1-14.3,5-20.8,8.6
					l-35-16.6c-7.7,6.2-14.7,13.2-20.9,20.9l16.6,35c-3.6,6.5-6.5,13.5-8.6,20.9l-36.6,13c-0.5,4.8-0.9,9.8-0.9,14.7
					c0,5,0.3,9.9,0.9,14.7l36.6,13c2.1,7.3,5,14.3,8.6,20.9l-16.6,35c6.2,7.7,13.2,14.7,20.9,20.9l35-16.6
					c6.5,3.6,13.5,6.5,20.9,8.6l13,36.6c4.8,0.5,9.7,0.8,14.7,0.8c5,0,9.9-0.3,14.7-0.9l13-36.6c7.3-2.1,14.3-5,20.9-8.6l35,16.6
					c7.7-6.2,14.7-13.2,20.9-20.9l-16.6-35c3.6-6.5,6.5-13.5,8.6-20.9l36.6-13c0.5-4.8,0.8-9.7,0.8-14.7c0-5-0.3-9.9-0.9-14.7
					L302.4,186.4z M206,281.1c-37,0-67-30-67-67s30-67,67-67s67,30,67,67S243,281.1,206,281.1z"/>
			</g>
		</g>
		<g id="gear-1-dark-blue">
			<g class="st1">
				<path class="st14" d="M339.1,228.9c0.5-4.8,0.8-9.7,0.8-14.7c0-5-0.3-9.9-0.9-14.7l-36.6-13c-2.1-7.3-5-14.3-8.6-20.9l16.6-35
					c-6.2-7.7-13.2-14.7-20.9-20.9l-35,16.6c-6.5-3.6-13.5-6.5-20.9-8.6l-13-36.6c-4.8-0.5-9.8-0.9-14.7-0.9c-5,0-9.9,0.3-14.7,0.9
					l-13,36.6c-7.3,2.1-14.3,5-20.8,8.6l-35-16.6c-7.7,6.2-14.7,13.2-20.9,20.9l16.6,35c-3.6,6.5-6.5,13.5-8.6,20.9l-36.6,13
					c-0.5,4.8-0.9,9.8-0.9,14.7c0,5,0.3,9.9,0.9,14.7l36.6,13c2.1,7.3,5,14.3,8.6,20.9l-16.6,35c6.2,7.7,13.2,14.7,20.9,20.9
					l35-16.6c6.5,3.6,13.5,6.5,20.9,8.6l13,36.6c4.8,0.5,9.7,0.8,14.7,0.8c5,0,9.9-0.3,14.7-0.9l13-36.6c7.3-2.1,14.3-5,20.9-8.6
					l35,16.6c7.7-6.2,14.7-13.2,20.9-20.9l-16.6-35c3.6-6.5,6.5-13.5,8.6-20.9L339.1,228.9z M288.5,225.8h-16.6
					c-4.9,27.6-26.6,49.4-54.2,54.2v14.8h-23.4v-14.8c-27.6-4.9-49.4-26.6-54.2-54.2h-16.6v-23.4h16.6c4.9-27.6,26.6-49.4,54.2-54.2
					v-14.8h23.4v14.8c27.6,4.9,49.4,26.6,54.2,54.2h16.6V225.8z"/>
				<path class="st14" d="M217.7,182.8v19.7h19.7C234,193.4,226.8,186.1,217.7,182.8z"/>
				<path class="st14" d="M194.3,182.8c-9.1,3.4-16.3,10.6-19.7,19.7h19.7V182.8z"/>
				<path class="st14" d="M217.7,245.5c9.1-3.4,16.3-10.6,19.7-19.7h-19.7V245.5z"/>
				<path class="st14" d="M174.6,225.8c3.4,9.1,10.6,16.3,19.7,19.7v-19.7H174.6z"/>
				<path class="st14" d="M206,180.7c4.1,0,8.1,0.7,11.7,2.1v-34.5c-3.8-0.7-7.7-1-11.7-1c-4,0-7.9,0.4-11.7,1v34.5
					C197.9,181.4,201.9,180.7,206,180.7z"/>
				<path class="st14" d="M206,247.6c-4.1,0-8.1-0.7-11.7-2.1v34.5c3.8,0.7,7.7,1,11.7,1c4,0,7.9-0.4,11.7-1v-34.5
					C214,246.9,210.1,247.6,206,247.6z"/>
				<path class="st14" d="M217.7,148.2v-14.8h-23.4v14.8c3.8-0.7,7.7-1,11.7-1C210,147.2,213.9,147.5,217.7,148.2z"/>
				<path class="st14" d="M204.8,202.4c0.3,0,0.7-0.1,1.1-0.1s0.7,0,1.1,0.1h10.8v-19.7c-3.6-1.4-7.6-2.1-11.7-2.1
					c-4.1,0-8.1,0.7-11.7,2.1v19.7H204.8z"/>
				<path class="st14" d="M194.3,280.1v14.8h23.4v-14.8c-3.8,0.7-7.7,1-11.7,1C202,281.1,198.1,280.7,194.3,280.1z"/>
				<path class="st14" d="M194.3,225.8v19.7c3.6,1.4,7.6,2.1,11.7,2.1c4.1,0,8.1-0.7,11.7-2.1v-19.7H194.3z"/>
				<path class="st14" d="M271.9,202.4h-34.5c1.4,3.6,2.1,7.6,2.1,11.7s-0.7,8.1-2.1,11.7h34.5c0.7-3.8,1-7.7,1-11.7
					S272.6,206.2,271.9,202.4z"/>
				<path class="st14" d="M172.5,214.1c0-4.1,0.7-8.1,2.1-11.7h-34.5c-0.7,3.8-1,7.7-1,11.7s0.4,7.9,1,11.7h34.5
					C173.2,222.2,172.5,218.2,172.5,214.1z"/>
				<path class="st14" d="M194.3,202.4h-19.7c-1.4,3.6-2.1,7.6-2.1,11.7s0.7,8.1,2.1,11.7h19.7V202.4z"/>
				<path class="st14" d="M272.9,214.1c0,4-0.4,7.9-1,11.7h16.6v-23.4h-16.6C272.6,206.2,272.9,210.1,272.9,214.1z"/>
				<path class="st14" d="M140.1,202.4h-16.6v23.4h16.6c-0.7-3.8-1-7.7-1-11.7S139.4,206.2,140.1,202.4z"/>
				<path class="st14" d="M217.7,225.8h19.7c1.4-3.6,2.1-7.6,2.1-11.7s-0.7-8.1-2.1-11.7h-19.7V225.8z"/>
				<path class="st14" d="M216.3,212.8c0,5.8-4.7,10.4-10.4,10.4s-10.4-4.7-10.4-10.4c0-5.4,4.1-9.8,9.4-10.4h-10.5v23.4h23.4v-23.4
					h-10.8C212.2,203,216.3,207.4,216.3,212.8z"/>
			</g>
		</g>
	</g>
	<g id="blue-larkspur" class="st0">
		<g id="gear-5-blue" class="st1">
			<g id="svg_3_5_">
				<path id="svg_4_5_" class="st17" d="M99.9,57.8l14.8,42.9l0,0c-7.8,6.2-14.9,13-21.3,20.4l0,0l-43.1-15.7l-16.8,27.5l34.7,29.4
					l0.1,0c-3.7,9-6.5,18.4-8.3,27.9l-0.1-0.1L14.2,198l-0.8,31.8l45.4,8c1.3,9.4,3.6,18.7,6.9,27.9l0,0l-36.3,29.3l15.4,27.6
					l43.9-15.6l0,0c6.1,7.6,12.8,14.4,20.1,20.4l-17,42.9l27.5,15.9l30.6-34.9l0-0.1c9.1,3.4,18.5,6,28.1,7.5l0,0.1l6.8,45l32.3,0.1
					l9.1-45l0,0c9.6-1.5,19.1-4,28.5-7.4l0,0l28.8,35l28.3-15.9l-14.8-42.9l0,0c7.8-6.2,14.9-13,21.3-20.4l43.1,15.7l16.8-27.5
					L343.7,266c3.7-9,6.5-18.4,8.3-27.9l45.8-7.8l0.8-31.8l-45.4-8c-1.3-9.4-3.6-18.7-6.9-27.9l36.3-29.2l-15.4-27.6l-43.9,15.6
					c-6.1-7.6-12.9-14.4-20.2-20.4l17-42.9l-27.5-15.9l-30.7,35c-9.1-3.4-18.5-5.9-28.1-7.5l-6.8-45l-32.3-0.1l-9.2,45
					c-9.6,1.5-19.1,4-28.5,7.5l0,0l-28.8-35L99.9,57.8L99.9,57.8z M151.6,117c55.2-30.9,124.3-12.4,154.3,41.2
					c30,53.7,9.6,122.2-45.6,153c-55.2,30.9-124.2,12.4-154.3-41.2S96.5,147.9,151.6,117z"/>
			</g>
			<g id="Layer_8_copy_5">
				<g>
					<path class="st17" d="M195.9,249.3l-3.2,93.8l20,0.7l3.2-94.4c-3.2,0.9-6.5,1.4-9.9,1.4C202.5,250.7,199.1,250.2,195.9,249.3z"
						/>
					<path class="st18" d="M214.2,199.8c-2.4-1.4-5.2-2.2-8.2-2.2c-2.7,0-5.3,0.7-7.5,1.8l8.1,4.5L214.2,199.8z"/>
					<path class="st17" d="M218.3,179.7L221.9,73l-20-0.7l-3.6,106c2.5-0.5,5-0.8,7.7-0.8C210.3,177.6,214.4,178.3,218.3,179.7z"/>
					<path class="st18" d="M200.6,229.8c1.7,0.6,3.5,0.9,5.4,0.9c2,0,3.9-0.4,5.6-1l-5.3-3L200.6,229.8z"/>
					<path class="st17" d="M231.1,240.6l93.9,52.7l9.8-17.4l-93.5-52.4C239.6,230.1,236,236,231.1,240.6z"/>
					<path class="st18" d="M197.6,199.9c-4.6,2.7-7.7,7.6-8.1,13.2l7.8-4.2L197.6,199.9z"/>
					<path class="st18" d="M216.7,226.8c2.6-2.2,4.5-5.1,5.3-8.5l-5.1,2.8L216.7,226.8z"/>
					<path class="st17" d="M87.4,137.1l-9.8,17.4l92.6,51.9c1.4-6.8,4.8-12.8,9.4-17.7L87.4,137.1z"/>
					<path class="st18" d="M206.5,203.9l-8.1-4.5c-0.3,0.2-0.6,0.3-0.9,0.5l-0.3,9L206.5,203.9z"/>
					<path class="st18" d="M216.9,221l-10.6,5.7l5.3,3c1.9-0.7,3.6-1.7,5.1-2.9L216.9,221z"/>
					<path class="st18" d="M189.7,217.4c0.9,4.3,3.4,8,6.9,10.4l0.2-6.4L189.7,217.4z"/>
					<path class="st17" d="M334.7,157.8l-9.5-17.6l-92.1,49.4c4.5,4.9,7.6,11.1,8.8,18L334.7,157.8z"/>
					<path class="st17" d="M170.5,223.2L70.1,277.1l9.5,17.6l101.1-54.2C175.8,235.8,172.2,229.9,170.5,223.2z"/>
					<path class="st18" d="M222.5,212.9c-0.3-4.2-2.2-7.9-5-10.6l-0.3,7.7L222.5,212.9z"/>
					<path class="st18" d="M217.2,209.9l0.3-7.7c-1-1-2.1-1.8-3.3-2.5l-7.7,4.1L217.2,209.9z"/>
					<path class="st18" d="M196.8,221.4l-0.2,6.4c1.2,0.8,2.5,1.5,3.9,2l5.7-3.1L196.8,221.4z"/>
					<path class="st18" d="M197.3,208.9l-7.8,4.2c0,0.4-0.1,0.7-0.1,1.1c0,1.1,0.1,2.2,0.3,3.3l7.1,4L197.3,208.9z"/>
					<path class="st18" d="M216.9,221l5.1-2.8c0.3-1.3,0.5-2.7,0.5-4.1c0-0.4,0-0.8-0.1-1.3l-5.3-2.9L216.9,221z"/>
					<polygon class="st18" points="206.5,203.9 197.3,208.9 196.8,221.4 206.3,226.7 216.9,221 217.2,209.9 					"/>
					<path class="st17" d="M180.6,240.5c4.2,4.1,9.5,7.1,15.3,8.8l0.6-17.3L180.6,240.5z"/>
					<path class="st17" d="M170.2,206.5c-0.5,2.5-0.8,5-0.8,7.6c0,3.1,0.4,6.2,1.1,9.1l15.1-8.1L170.2,206.5z"/>
					<path class="st17" d="M216.5,232.4l-0.6,16.9c5.8-1.6,11-4.7,15.2-8.7L216.5,232.4z"/>
					<path class="st17" d="M233.1,189.6c-4-4.4-9.1-7.9-14.8-9.9l-0.6,18.2L233.1,189.6z"/>
					<path class="st17" d="M198.3,178.4c-7.3,1.6-13.7,5.3-18.7,10.5l18,10.1L198.3,178.4z"/>
					<path class="st17" d="M241.3,223.4c0.8-3,1.2-6.1,1.2-9.3c0-2.2-0.2-4.4-0.6-6.6l-14.8,7.9L241.3,223.4z"/>
					<path class="st17" d="M198.4,199.4c2.3-1.2,4.8-1.8,7.5-1.8c3,0,5.8,0.8,8.2,2.2l3.4-1.8l0.6-18.2c-3.8-1.4-8-2.1-12.3-2.1
						c-2.6,0-5.2,0.3-7.7,0.8l-0.7,20.5L198.4,199.4z"/>
					<path class="st17" d="M211.6,229.7c-1.8,0.6-3.7,1-5.6,1c-1.9,0-3.7-0.3-5.4-0.9l-4.1,2.2l-0.6,17.3c3.2,0.9,6.6,1.4,10.1,1.4
						c3.4,0,6.8-0.5,9.9-1.4l0.6-16.9L211.6,229.7z"/>
					<path class="st17" d="M222,218.3c-0.9,3.4-2.8,6.3-5.3,8.5l-0.2,5.6l14.7,8.2c4.9-4.6,8.5-10.5,10.2-17.2l-14.2-7.9L222,218.3z
						"/>
					<path class="st17" d="M189.5,213c0.4-5.6,3.5-10.5,8.1-13.2l0-1l-18-10.1c-4.6,4.8-7.9,10.9-9.4,17.7l15.4,8.6L189.5,213z"/>
					<path class="st17" d="M197.6,198.9l0,1c0.3-0.2,0.6-0.3,0.9-0.5L197.6,198.9z"/>
					<path class="st17" d="M211.6,229.7l4.9,2.7l0.2-5.6C215.2,228,213.5,229,211.6,229.7z"/>
					<path class="st17" d="M196.6,227.8c-3.5-2.4-6-6.1-6.9-10.4l-4.1-2.3l-15.1,8.1c1.7,6.7,5.3,12.6,10.1,17.3l15.8-8.5
						L196.6,227.8z"/>
					<path class="st17" d="M217.5,202.2c2.8,2.7,4.7,6.5,5,10.6l4.7,2.6l14.8-7.9c-1.2-6.8-4.4-13-8.8-18l-15.5,8.3L217.5,202.2z"/>
					<path class="st17" d="M196.5,232l4.1-2.2c-1.4-0.5-2.7-1.2-3.9-2L196.5,232z"/>
					<path class="st17" d="M217.6,197.9l-3.4,1.8c1.2,0.7,2.3,1.5,3.3,2.5L217.6,197.9z"/>
					<path class="st17" d="M222,218.3l5.2-2.8l-4.7-2.6c0,0.4,0.1,0.8,0.1,1.3C222.6,215.6,222.4,216.9,222,218.3z"/>
					<path class="st17" d="M189.5,213l-3.9,2.1l4.1,2.3c-0.2-1.1-0.3-2.2-0.3-3.3C189.4,213.8,189.4,213.4,189.5,213z"/>
				</g>
			</g>
		</g>
		<g id="gear-4-blue">
			<path class="st19" d="M306.2,219.1l-16.8-0.3c-0.4,0-0.7-0.3-0.8-0.7c-0.8-6.6-2.5-13.1-5-19.3c-0.2-0.4,0-0.8,0.3-1l14.4-8.9
				c0.5-0.3,0.7-1.1,0.4-1.6l-7.2-12.9c-0.2-0.4-0.6-0.6-1-0.6c-0.2,0-0.4,0.1-0.6,0.1l-14.7,8.4c-0.1,0.1-0.2,0.1-0.4,0.1
				c-0.2,0-0.5-0.1-0.6-0.3c-3.9-5.3-8.6-10.1-13.7-14.1c-0.3-0.2-0.4-0.7-0.2-1l8.1-15.2c0.3-0.6,0.1-1.3-0.4-1.6l-12.5-7.5
				c-0.2-0.1-0.4-0.2-0.6-0.2c-0.4,0-0.8,0.2-1,0.6l-8.7,14.9c-0.1,0.2-0.4,0.4-0.7,0.4c-0.1,0-0.2,0-0.3-0.1
				c-6-2.6-12.3-4.3-18.7-5.2c-0.4-0.1-0.7-0.4-0.7-0.8l-0.3-17.3c0-0.6-0.5-1.2-1.1-1.2H209c-0.6,0-1.1,0.5-1.2,1.2l-0.3,17.3
				c0,0.4-0.3,0.7-0.7,0.8c-6.4,0.8-12.7,2.6-18.7,5.2c-0.1,0-0.2,0.1-0.3,0.1c-0.3,0-0.5-0.1-0.7-0.4l-8.7-14.9
				c-0.2-0.3-0.6-0.6-1-0.6c-0.2,0-0.4,0.1-0.6,0.2l-12.5,7.5c-0.5,0.3-0.7,1-0.4,1.6l8.1,15.2c0.2,0.4,0.1,0.8-0.2,1
				c-5.2,4.1-9.8,8.8-13.7,14.1c-0.1,0.2-0.4,0.3-0.6,0.3c-0.1,0-0.3,0-0.4-0.1l-14.7-8.4c-0.2-0.1-0.4-0.1-0.6-0.1
				c-0.4,0-0.8,0.2-1,0.6l-7.2,12.9c-0.3,0.6-0.1,1.3,0.4,1.6l14.4,8.9c0.3,0.2,0.5,0.6,0.3,1c-2.5,6.2-4.2,12.7-5,19.3
				c0,0.4-0.4,0.7-0.8,0.7l-16.8,0.3c-0.6,0-1.1,0.5-1.1,1.2v14.9c0,0.6,0.5,1.2,1.1,1.2l16.8,0.3c0.4,0,0.7,0.3,0.8,0.7
				c0.8,6.6,2.5,13.1,5,19.3c0.1,0.4,0,0.8-0.3,1l-14.4,9c-0.5,0.3-0.7,1-0.4,1.6l7.2,12.9c0.2,0.4,0.6,0.6,1,0.6
				c0.2,0,0.4,0,0.6-0.1l14.7-8.4c0.1-0.1,0.2-0.1,0.4-0.1c0.2,0,0.5,0.1,0.6,0.3c3.9,5.3,8.6,10.1,13.7,14.1c0.3,0.2,0.4,0.7,0.2,1
				l-8.1,15.2c-0.3,0.6-0.1,1.3,0.4,1.6l12.5,7.5c0.2,0.1,0.4,0.2,0.6,0.2c0.4,0,0.8-0.2,1-0.6l8.7-14.8c0.1-0.2,0.4-0.4,0.7-0.4
				c0.1,0,0.2,0,0.3,0.1c6,2.6,12.3,4.3,18.7,5.2c0.4,0,0.7,0.4,0.7,0.8l0.3,17.3c0,0.6,0.5,1.2,1.2,1.2h14.5c0.6,0,1.1-0.5,1.1-1.2
				l0.3-17.3c0-0.4,0.3-0.7,0.7-0.8c6.4-0.9,12.7-2.6,18.7-5.2c0.1,0,0.2-0.1,0.3-0.1c0.3,0,0.5,0.1,0.7,0.4l8.7,14.8
				c0.2,0.4,0.6,0.6,1,0.6c0.2,0,0.4-0.1,0.6-0.2l12.5-7.5c0.5-0.3,0.7-1,0.4-1.6l-8.1-15.2c-0.2-0.4-0.1-0.8,0.2-1
				c5.1-4.1,9.8-8.8,13.7-14.1c0.1-0.2,0.4-0.3,0.6-0.3c0.1,0,0.3,0,0.4,0.1l14.7,8.4c0.2,0.1,0.4,0.1,0.6,0.1c0.4,0,0.8-0.2,1-0.6
				l7.2-12.9c0.3-0.6,0.1-1.3-0.4-1.6l-14.4-9c-0.3-0.2-0.5-0.6-0.3-1c2.5-6.2,4.2-12.7,5-19.3c0.1-0.4,0.4-0.7,0.8-0.7l16.8-0.3
				c0.6,0,1.1-0.5,1.1-1.2v-14.9C307.3,219.6,306.8,219.1,306.2,219.1z M216.2,278.3c-27.1,0-49-22.6-49-50.6
				c0-27.9,22-50.6,49-50.6c27.1,0,49.1,22.7,49.1,50.6C265.3,255.6,243.3,278.3,216.2,278.3z"/>
		</g>
		<g id="gear-3-blue">
			<path class="st19" d="M50.7,238.4v-48.5l46.7-4.9c2.8-9.3,6.7-18.4,11.5-27.3l-29.7-36.4l34-34l36.4,29.7
				c8.5-4.9,17.6-8.7,27.3-11.5l4.9-46.7h48.5l4.9,46.7c9.3,2.8,18.4,6.7,27.3,11.5l36.4-29.7l34,34l-29.7,36.4
				c4.9,8.9,8.7,18,11.5,27.3l46.7,4.9v48.5l-46.7,4.9c-2.8,9.7-6.7,18.8-11.5,27.3l29.7,36.4l-34,34l-36.4-29.7
				c-8.9,4.9-18,8.7-27.3,11.5l-4.9,46.7h-48.5l-4.9-46.7c-9.7-2.8-18.8-6.7-27.3-11.5l-36.4,29.7l-34-34l29.7-36.4
				c-4.9-8.5-8.7-17.6-11.5-27.3L50.7,238.4z M161.1,214.1c0,12.5,4.3,23.2,13,31.9c8.7,8.7,19.3,13,31.9,13
				c12.5,0,23.2-4.3,31.9-13c8.7-8.7,13-19.3,13-31.9c0-12.5-4.3-23.2-13-31.9c-8.7-8.7-19.3-13-31.9-13s-23.2,4.3-31.9,13
				S161.1,201.6,161.1,214.1L161.1,214.1z"/>
		</g>
		<g id="gear-2-blue">
			<g class="st1">
				<path class="st17" d="M302.4,186.4c-2.1-7.3-5-14.3-8.6-20.9l16.6-35c-6.2-7.7-13.2-14.7-20.9-20.9l-35,16.6
					c-6.5-3.6-13.5-6.5-20.9-8.6l-13-36.6c-4.8-0.5-9.8-0.9-14.7-0.9c-5,0-9.9,0.3-14.7,0.9l-13,36.6c-7.3,2.1-14.3,5-20.8,8.6
					l-35-16.6c-7.7,6.2-14.7,13.2-20.9,20.9l16.6,35c-3.6,6.5-6.5,13.5-8.6,20.9l-36.6,13c-0.5,4.8-0.9,9.8-0.9,14.7
					c0,5,0.3,9.9,0.9,14.7l36.6,13c2.1,7.3,5,14.3,8.6,20.9l-16.6,35c6.2,7.7,13.2,14.7,20.9,20.9l35-16.6
					c6.5,3.6,13.5,6.5,20.9,8.6l13,36.6c4.8,0.5,9.7,0.8,14.7,0.8c5,0,9.9-0.3,14.7-0.9l13-36.6c7.3-2.1,14.3-5,20.9-8.6l35,16.6
					c7.7-6.2,14.7-13.2,20.9-20.9l-16.6-35c3.6-6.5,6.5-13.5,8.6-20.9l36.6-13c0.5-4.8,0.8-9.7,0.8-14.7c0-5-0.3-9.9-0.9-14.7
					L302.4,186.4z M206,281.1c-37,0-67-30-67-67s30-67,67-67s67,30,67,67S243,281.1,206,281.1z"/>
			</g>
		</g>
		<g id="gear-1-blue">
			<g class="st1">
				<path class="st17" d="M339.1,228.9c0.5-4.8,0.8-9.7,0.8-14.7c0-5-0.3-9.9-0.9-14.7l-36.6-13c-2.1-7.3-5-14.3-8.6-20.9l16.6-35
					c-6.2-7.7-13.2-14.7-20.9-20.9l-35,16.6c-6.5-3.6-13.5-6.5-20.9-8.6l-13-36.6c-4.8-0.5-9.8-0.9-14.7-0.9c-5,0-9.9,0.3-14.7,0.9
					l-13,36.6c-7.3,2.1-14.3,5-20.8,8.6l-35-16.6c-7.7,6.2-14.7,13.2-20.9,20.9l16.6,35c-3.6,6.5-6.5,13.5-8.6,20.9l-36.6,13
					c-0.5,4.8-0.9,9.8-0.9,14.7c0,5,0.3,9.9,0.9,14.7l36.6,13c2.1,7.3,5,14.3,8.6,20.9l-16.6,35c6.2,7.7,13.2,14.7,20.9,20.9
					l35-16.6c6.5,3.6,13.5,6.5,20.9,8.6l13,36.6c4.8,0.5,9.7,0.8,14.7,0.8c5,0,9.9-0.3,14.7-0.9l13-36.6c7.3-2.1,14.3-5,20.9-8.6
					l35,16.6c7.7-6.2,14.7-13.2,20.9-20.9l-16.6-35c3.6-6.5,6.5-13.5,8.6-20.9L339.1,228.9z M288.5,225.8h-16.6
					c-4.9,27.6-26.6,49.4-54.2,54.2v14.8h-23.4v-14.8c-27.6-4.9-49.4-26.6-54.2-54.2h-16.6v-23.4h16.6c4.9-27.6,26.6-49.4,54.2-54.2
					v-14.8h23.4v14.8c27.6,4.9,49.4,26.6,54.2,54.2h16.6V225.8z"/>
				<path class="st17" d="M217.7,182.8v19.7h19.7C234,193.4,226.8,186.1,217.7,182.8z"/>
				<path class="st17" d="M194.3,182.8c-9.1,3.4-16.3,10.6-19.7,19.7h19.7V182.8z"/>
				<path class="st17" d="M217.7,245.5c9.1-3.4,16.3-10.6,19.7-19.7h-19.7V245.5z"/>
				<path class="st17" d="M174.6,225.8c3.4,9.1,10.6,16.3,19.7,19.7v-19.7H174.6z"/>
				<path class="st17" d="M206,180.7c4.1,0,8.1,0.7,11.7,2.1v-34.5c-3.8-0.7-7.7-1-11.7-1c-4,0-7.9,0.4-11.7,1v34.5
					C197.9,181.4,201.9,180.7,206,180.7z"/>
				<path class="st17" d="M206,247.6c-4.1,0-8.1-0.7-11.7-2.1v34.5c3.8,0.7,7.7,1,11.7,1c4,0,7.9-0.4,11.7-1v-34.5
					C214,246.9,210.1,247.6,206,247.6z"/>
				<path class="st17" d="M217.7,148.2v-14.8h-23.4v14.8c3.8-0.7,7.7-1,11.7-1C210,147.2,213.9,147.5,217.7,148.2z"/>
				<path class="st17" d="M204.8,202.4c0.3,0,0.7-0.1,1.1-0.1s0.7,0,1.1,0.1h10.8v-19.7c-3.6-1.4-7.6-2.1-11.7-2.1
					c-4.1,0-8.1,0.7-11.7,2.1v19.7H204.8z"/>
				<path class="st17" d="M194.3,280.1v14.8h23.4v-14.8c-3.8,0.7-7.7,1-11.7,1C202,281.1,198.1,280.7,194.3,280.1z"/>
				<path class="st17" d="M194.3,225.8v19.7c3.6,1.4,7.6,2.1,11.7,2.1c4.1,0,8.1-0.7,11.7-2.1v-19.7H194.3z"/>
				<path class="st17" d="M271.9,202.4h-34.5c1.4,3.6,2.1,7.6,2.1,11.7s-0.7,8.1-2.1,11.7h34.5c0.7-3.8,1-7.7,1-11.7
					S272.6,206.2,271.9,202.4z"/>
				<path class="st17" d="M172.5,214.1c0-4.1,0.7-8.1,2.1-11.7h-34.5c-0.7,3.8-1,7.7-1,11.7s0.4,7.9,1,11.7h34.5
					C173.2,222.2,172.5,218.2,172.5,214.1z"/>
				<path class="st17" d="M194.3,202.4h-19.7c-1.4,3.6-2.1,7.6-2.1,11.7s0.7,8.1,2.1,11.7h19.7V202.4z"/>
				<path class="st17" d="M272.9,214.1c0,4-0.4,7.9-1,11.7h16.6v-23.4h-16.6C272.6,206.2,272.9,210.1,272.9,214.1z"/>
				<path class="st17" d="M140.1,202.4h-16.6v23.4h16.6c-0.7-3.8-1-7.7-1-11.7S139.4,206.2,140.1,202.4z"/>
				<path class="st17" d="M217.7,225.8h19.7c1.4-3.6,2.1-7.6,2.1-11.7s-0.7-8.1-2.1-11.7h-19.7V225.8z"/>
				<path class="st17" d="M216.3,212.8c0,5.8-4.7,10.4-10.4,10.4s-10.4-4.7-10.4-10.4c0-5.4,4.1-9.8,9.4-10.4h-10.5v23.4h23.4v-23.4
					h-10.8C212.2,203,216.3,207.4,216.3,212.8z"/>
			</g>
		</g>
	</g>
	<g id="light-blue" class="st0">
		<g id="gear-5-light-blue" class="st1">
			<g id="svg_3_6_">
				<path id="svg_4_6_" class="st20" d="M99.9,57.8l14.8,42.9l0,0c-7.8,6.2-14.9,13-21.3,20.4l0,0l-43.1-15.7l-16.8,27.5l34.7,29.4
					l0.1,0c-3.7,9-6.5,18.4-8.3,27.9l-0.1-0.1L14.2,198l-0.8,31.8l45.4,8c1.3,9.4,3.6,18.7,6.9,27.9l0,0l-36.3,29.3l15.4,27.6
					l43.9-15.6l0,0c6.1,7.6,12.8,14.4,20.1,20.4l-17,42.9l27.5,15.9l30.6-34.9l0-0.1c9.1,3.4,18.5,6,28.1,7.5l0,0.1l6.8,45l32.3,0.1
					l9.1-45l0,0c9.6-1.5,19.1-4,28.5-7.4l0,0l28.8,35l28.3-15.9l-14.8-42.9l0,0c7.8-6.2,14.9-13,21.3-20.4l43.1,15.7l16.8-27.5
					L343.7,266c3.7-9,6.5-18.4,8.3-27.9l45.8-7.8l0.8-31.8l-45.4-8c-1.3-9.4-3.6-18.7-6.9-27.9l36.3-29.2l-15.4-27.6l-43.9,15.6
					c-6.1-7.6-12.9-14.4-20.2-20.4l17-42.9l-27.5-15.9l-30.7,35c-9.1-3.4-18.5-5.9-28.1-7.5l-6.8-45l-32.3-0.1l-9.2,45
					c-9.6,1.5-19.1,4-28.5,7.5l0,0l-28.8-35L99.9,57.8L99.9,57.8z M151.6,117c55.2-30.9,124.3-12.4,154.3,41.2
					c30,53.7,9.6,122.2-45.6,153c-55.2,30.9-124.2,12.4-154.3-41.2S96.5,147.9,151.6,117z"/>
			</g>
			<g id="Layer_8_copy_6">
				<g>
					<path class="st20" d="M195.9,249.3l-3.2,93.8l20,0.7l3.2-94.4c-3.2,0.9-6.5,1.4-9.9,1.4C202.5,250.7,199.1,250.2,195.9,249.3z"
						/>
					<path class="st21" d="M214.2,199.8c-2.4-1.4-5.2-2.2-8.2-2.2c-2.7,0-5.3,0.7-7.5,1.8l8.1,4.5L214.2,199.8z"/>
					<path class="st20" d="M218.3,179.7L221.9,73l-20-0.7l-3.6,106c2.5-0.5,5-0.8,7.7-0.8C210.3,177.6,214.4,178.3,218.3,179.7z"/>
					<path class="st21" d="M200.6,229.8c1.7,0.6,3.5,0.9,5.4,0.9c2,0,3.9-0.4,5.6-1l-5.3-3L200.6,229.8z"/>
					<path class="st20" d="M231.1,240.6l93.9,52.7l9.8-17.4l-93.5-52.4C239.6,230.1,236,236,231.1,240.6z"/>
					<path class="st21" d="M197.6,199.9c-4.6,2.7-7.7,7.6-8.1,13.2l7.8-4.2L197.6,199.9z"/>
					<path class="st21" d="M216.7,226.8c2.6-2.2,4.5-5.1,5.3-8.5l-5.1,2.8L216.7,226.8z"/>
					<path class="st20" d="M87.4,137.1l-9.8,17.4l92.6,51.9c1.4-6.8,4.8-12.8,9.4-17.7L87.4,137.1z"/>
					<path class="st21" d="M206.5,203.9l-8.1-4.5c-0.3,0.2-0.6,0.3-0.9,0.5l-0.3,9L206.5,203.9z"/>
					<path class="st21" d="M216.9,221l-10.6,5.7l5.3,3c1.9-0.7,3.6-1.7,5.1-2.9L216.9,221z"/>
					<path class="st21" d="M189.7,217.4c0.9,4.3,3.4,8,6.9,10.4l0.2-6.4L189.7,217.4z"/>
					<path class="st20" d="M334.7,157.8l-9.5-17.6l-92.1,49.4c4.5,4.9,7.6,11.1,8.8,18L334.7,157.8z"/>
					<path class="st20" d="M170.5,223.2L70.1,277.1l9.5,17.6l101.1-54.2C175.8,235.8,172.2,229.9,170.5,223.2z"/>
					<path class="st21" d="M222.5,212.9c-0.3-4.2-2.2-7.9-5-10.6l-0.3,7.7L222.5,212.9z"/>
					<path class="st21" d="M217.2,209.9l0.3-7.7c-1-1-2.1-1.8-3.3-2.5l-7.7,4.1L217.2,209.9z"/>
					<path class="st21" d="M196.8,221.4l-0.2,6.4c1.2,0.8,2.5,1.5,3.9,2l5.7-3.1L196.8,221.4z"/>
					<path class="st21" d="M197.3,208.9l-7.8,4.2c0,0.4-0.1,0.7-0.1,1.1c0,1.1,0.1,2.2,0.3,3.3l7.1,4L197.3,208.9z"/>
					<path class="st21" d="M216.9,221l5.1-2.8c0.3-1.3,0.5-2.7,0.5-4.1c0-0.4,0-0.8-0.1-1.3l-5.3-2.9L216.9,221z"/>
					<polygon class="st21" points="206.5,203.9 197.3,208.9 196.8,221.4 206.3,226.7 216.9,221 217.2,209.9 					"/>
					<path class="st20" d="M180.6,240.5c4.2,4.1,9.5,7.1,15.3,8.8l0.6-17.3L180.6,240.5z"/>
					<path class="st20" d="M170.2,206.5c-0.5,2.5-0.8,5-0.8,7.6c0,3.1,0.4,6.2,1.1,9.1l15.1-8.1L170.2,206.5z"/>
					<path class="st20" d="M216.5,232.4l-0.6,16.9c5.8-1.6,11-4.7,15.2-8.7L216.5,232.4z"/>
					<path class="st20" d="M233.1,189.6c-4-4.4-9.1-7.9-14.8-9.9l-0.6,18.2L233.1,189.6z"/>
					<path class="st20" d="M198.3,178.4c-7.3,1.6-13.7,5.3-18.7,10.5l18,10.1L198.3,178.4z"/>
					<path class="st20" d="M241.3,223.4c0.8-3,1.2-6.1,1.2-9.3c0-2.2-0.2-4.4-0.6-6.6l-14.8,7.9L241.3,223.4z"/>
					<path class="st20" d="M198.4,199.4c2.3-1.2,4.8-1.8,7.5-1.8c3,0,5.8,0.8,8.2,2.2l3.4-1.8l0.6-18.2c-3.8-1.4-8-2.1-12.3-2.1
						c-2.6,0-5.2,0.3-7.7,0.8l-0.7,20.5L198.4,199.4z"/>
					<path class="st20" d="M211.6,229.7c-1.8,0.6-3.7,1-5.6,1c-1.9,0-3.7-0.3-5.4-0.9l-4.1,2.2l-0.6,17.3c3.2,0.9,6.6,1.4,10.1,1.4
						c3.4,0,6.8-0.5,9.9-1.4l0.6-16.9L211.6,229.7z"/>
					<path class="st20" d="M222,218.3c-0.9,3.4-2.8,6.3-5.3,8.5l-0.2,5.6l14.7,8.2c4.9-4.6,8.5-10.5,10.2-17.2l-14.2-7.9L222,218.3z
						"/>
					<path class="st20" d="M189.5,213c0.4-5.6,3.5-10.5,8.1-13.2l0-1l-18-10.1c-4.6,4.8-7.9,10.9-9.4,17.7l15.4,8.6L189.5,213z"/>
					<path class="st20" d="M197.6,198.9l0,1c0.3-0.2,0.6-0.3,0.9-0.5L197.6,198.9z"/>
					<path class="st20" d="M211.6,229.7l4.9,2.7l0.2-5.6C215.2,228,213.5,229,211.6,229.7z"/>
					<path class="st20" d="M196.6,227.8c-3.5-2.4-6-6.1-6.9-10.4l-4.1-2.3l-15.1,8.1c1.7,6.7,5.3,12.6,10.1,17.3l15.8-8.5
						L196.6,227.8z"/>
					<path class="st20" d="M217.5,202.2c2.8,2.7,4.7,6.5,5,10.6l4.7,2.6l14.8-7.9c-1.2-6.8-4.4-13-8.8-18l-15.5,8.3L217.5,202.2z"/>
					<path class="st20" d="M196.5,232l4.1-2.2c-1.4-0.5-2.7-1.2-3.9-2L196.5,232z"/>
					<path class="st20" d="M217.6,197.9l-3.4,1.8c1.2,0.7,2.3,1.5,3.3,2.5L217.6,197.9z"/>
					<path class="st20" d="M222,218.3l5.2-2.8l-4.7-2.6c0,0.4,0.1,0.8,0.1,1.3C222.6,215.6,222.4,216.9,222,218.3z"/>
					<path class="st20" d="M189.5,213l-3.9,2.1l4.1,2.3c-0.2-1.1-0.3-2.2-0.3-3.3C189.4,213.8,189.4,213.4,189.5,213z"/>
				</g>
			</g>
		</g>
		<g id="gear-4-light-blue">
			<path class="st22" d="M306.2,219.1l-16.8-0.3c-0.4,0-0.7-0.3-0.8-0.7c-0.8-6.6-2.5-13.1-5-19.3c-0.2-0.4,0-0.8,0.3-1l14.4-8.9
				c0.5-0.3,0.7-1.1,0.4-1.6l-7.2-12.9c-0.2-0.4-0.6-0.6-1-0.6c-0.2,0-0.4,0.1-0.6,0.1l-14.7,8.4c-0.1,0.1-0.2,0.1-0.4,0.1
				c-0.2,0-0.5-0.1-0.6-0.3c-3.9-5.3-8.6-10.1-13.7-14.1c-0.3-0.2-0.4-0.7-0.2-1l8.1-15.2c0.3-0.6,0.1-1.3-0.4-1.6l-12.5-7.5
				c-0.2-0.1-0.4-0.2-0.6-0.2c-0.4,0-0.8,0.2-1,0.6l-8.7,14.9c-0.1,0.2-0.4,0.4-0.7,0.4c-0.1,0-0.2,0-0.3-0.1
				c-6-2.6-12.3-4.3-18.7-5.2c-0.4-0.1-0.7-0.4-0.7-0.8l-0.3-17.3c0-0.6-0.5-1.2-1.1-1.2H209c-0.6,0-1.1,0.5-1.2,1.2l-0.3,17.3
				c0,0.4-0.3,0.7-0.7,0.8c-6.4,0.8-12.7,2.6-18.7,5.2c-0.1,0-0.2,0.1-0.3,0.1c-0.3,0-0.5-0.1-0.7-0.4l-8.7-14.9
				c-0.2-0.3-0.6-0.6-1-0.6c-0.2,0-0.4,0.1-0.6,0.2l-12.5,7.5c-0.5,0.3-0.7,1-0.4,1.6l8.1,15.2c0.2,0.4,0.1,0.8-0.2,1
				c-5.2,4.1-9.8,8.8-13.7,14.1c-0.1,0.2-0.4,0.3-0.6,0.3c-0.1,0-0.3,0-0.4-0.1l-14.7-8.4c-0.2-0.1-0.4-0.1-0.6-0.1
				c-0.4,0-0.8,0.2-1,0.6l-7.2,12.9c-0.3,0.6-0.1,1.3,0.4,1.6l14.4,8.9c0.3,0.2,0.5,0.6,0.3,1c-2.5,6.2-4.2,12.7-5,19.3
				c0,0.4-0.4,0.7-0.8,0.7l-16.8,0.3c-0.6,0-1.1,0.5-1.1,1.2v14.9c0,0.6,0.5,1.2,1.1,1.2l16.8,0.3c0.4,0,0.7,0.3,0.8,0.7
				c0.8,6.6,2.5,13.1,5,19.3c0.1,0.4,0,0.8-0.3,1l-14.4,9c-0.5,0.3-0.7,1-0.4,1.6l7.2,12.9c0.2,0.4,0.6,0.6,1,0.6
				c0.2,0,0.4,0,0.6-0.1l14.7-8.4c0.1-0.1,0.2-0.1,0.4-0.1c0.2,0,0.5,0.1,0.6,0.3c3.9,5.3,8.6,10.1,13.7,14.1c0.3,0.2,0.4,0.7,0.2,1
				l-8.1,15.2c-0.3,0.6-0.1,1.3,0.4,1.6l12.5,7.5c0.2,0.1,0.4,0.2,0.6,0.2c0.4,0,0.8-0.2,1-0.6l8.7-14.8c0.1-0.2,0.4-0.4,0.7-0.4
				c0.1,0,0.2,0,0.3,0.1c6,2.6,12.3,4.3,18.7,5.2c0.4,0,0.7,0.4,0.7,0.8l0.3,17.3c0,0.6,0.5,1.2,1.2,1.2h14.5c0.6,0,1.1-0.5,1.1-1.2
				l0.3-17.3c0-0.4,0.3-0.7,0.7-0.8c6.4-0.9,12.7-2.6,18.7-5.2c0.1,0,0.2-0.1,0.3-0.1c0.3,0,0.5,0.1,0.7,0.4l8.7,14.8
				c0.2,0.4,0.6,0.6,1,0.6c0.2,0,0.4-0.1,0.6-0.2l12.5-7.5c0.5-0.3,0.7-1,0.4-1.6l-8.1-15.2c-0.2-0.4-0.1-0.8,0.2-1
				c5.1-4.1,9.8-8.8,13.7-14.1c0.1-0.2,0.4-0.3,0.6-0.3c0.1,0,0.3,0,0.4,0.1l14.7,8.4c0.2,0.1,0.4,0.1,0.6,0.1c0.4,0,0.8-0.2,1-0.6
				l7.2-12.9c0.3-0.6,0.1-1.3-0.4-1.6l-14.4-9c-0.3-0.2-0.5-0.6-0.3-1c2.5-6.2,4.2-12.7,5-19.3c0.1-0.4,0.4-0.7,0.8-0.7l16.8-0.3
				c0.6,0,1.1-0.5,1.1-1.2v-14.9C307.3,219.6,306.8,219.1,306.2,219.1z M216.2,278.3c-27.1,0-49-22.6-49-50.6
				c0-27.9,22-50.6,49-50.6c27.1,0,49.1,22.7,49.1,50.6C265.3,255.6,243.3,278.3,216.2,278.3z"/>
		</g>
		<g id="gear-3-light-blue">
			<path class="st23" d="M50.7,238.4v-48.5l46.7-4.9c2.8-9.3,6.7-18.4,11.5-27.3l-29.7-36.4l34-34l36.4,29.7
				c8.5-4.9,17.6-8.7,27.3-11.5l4.9-46.7h48.5l4.9,46.7c9.3,2.8,18.4,6.7,27.3,11.5l36.4-29.7l34,34l-29.7,36.4
				c4.9,8.9,8.7,18,11.5,27.3l46.7,4.9v48.5l-46.7,4.9c-2.8,9.7-6.7,18.8-11.5,27.3l29.7,36.4l-34,34l-36.4-29.7
				c-8.9,4.9-18,8.7-27.3,11.5l-4.9,46.7h-48.5l-4.9-46.7c-9.7-2.8-18.8-6.7-27.3-11.5l-36.4,29.7l-34-34l29.7-36.4
				c-4.9-8.5-8.7-17.6-11.5-27.3L50.7,238.4z M161.1,214.1c0,12.5,4.3,23.2,13,31.9c8.7,8.7,19.3,13,31.9,13
				c12.5,0,23.2-4.3,31.9-13c8.7-8.7,13-19.3,13-31.9c0-12.5-4.3-23.2-13-31.9c-8.7-8.7-19.3-13-31.9-13s-23.2,4.3-31.9,13
				S161.1,201.6,161.1,214.1L161.1,214.1z"/>
		</g>
		<g id="gear-2-light-blue">
			<g class="st1">
				<path class="st24" d="M302.4,186.4c-2.1-7.3-5-14.3-8.6-20.9l16.6-35c-6.2-7.7-13.2-14.7-20.9-20.9l-35,16.6
					c-6.5-3.6-13.5-6.5-20.9-8.6l-13-36.6c-4.8-0.5-9.8-0.9-14.7-0.9c-5,0-9.9,0.3-14.7,0.9l-13,36.6c-7.3,2.1-14.3,5-20.8,8.6
					l-35-16.6c-7.7,6.2-14.7,13.2-20.9,20.9l16.6,35c-3.6,6.5-6.5,13.5-8.6,20.9l-36.6,13c-0.5,4.8-0.9,9.8-0.9,14.7
					c0,5,0.3,9.9,0.9,14.7l36.6,13c2.1,7.3,5,14.3,8.6,20.9l-16.6,35c6.2,7.7,13.2,14.7,20.9,20.9l35-16.6
					c6.5,3.6,13.5,6.5,20.9,8.6l13,36.6c4.8,0.5,9.7,0.8,14.7,0.8c5,0,9.9-0.3,14.7-0.9l13-36.6c7.3-2.1,14.3-5,20.9-8.6l35,16.6
					c7.7-6.2,14.7-13.2,20.9-20.9l-16.6-35c3.6-6.5,6.5-13.5,8.6-20.9l36.6-13c0.5-4.8,0.8-9.7,0.8-14.7c0-5-0.3-9.9-0.9-14.7
					L302.4,186.4z M206,281.1c-37,0-67-30-67-67s30-67,67-67s67,30,67,67S243,281.1,206,281.1z"/>
			</g>
		</g>
		<g id="gear-1-light-blue">
			<g class="st1">
				<path class="st25" d="M339.1,228.9c0.5-4.8,0.8-9.7,0.8-14.7c0-5-0.3-9.9-0.9-14.7l-36.6-13c-2.1-7.3-5-14.3-8.6-20.9l16.6-35
					c-6.2-7.7-13.2-14.7-20.9-20.9l-35,16.6c-6.5-3.6-13.5-6.5-20.9-8.6l-13-36.6c-4.8-0.5-9.8-0.9-14.7-0.9c-5,0-9.9,0.3-14.7,0.9
					l-13,36.6c-7.3,2.1-14.3,5-20.8,8.6l-35-16.6c-7.7,6.2-14.7,13.2-20.9,20.9l16.6,35c-3.6,6.5-6.5,13.5-8.6,20.9l-36.6,13
					c-0.5,4.8-0.9,9.8-0.9,14.7c0,5,0.3,9.9,0.9,14.7l36.6,13c2.1,7.3,5,14.3,8.6,20.9l-16.6,35c6.2,7.7,13.2,14.7,20.9,20.9
					l35-16.6c6.5,3.6,13.5,6.5,20.9,8.6l13,36.6c4.8,0.5,9.7,0.8,14.7,0.8c5,0,9.9-0.3,14.7-0.9l13-36.6c7.3-2.1,14.3-5,20.9-8.6
					l35,16.6c7.7-6.2,14.7-13.2,20.9-20.9l-16.6-35c3.6-6.5,6.5-13.5,8.6-20.9L339.1,228.9z M288.5,225.8h-16.6
					c-4.9,27.6-26.6,49.4-54.2,54.2v14.8h-23.4v-14.8c-27.6-4.9-49.4-26.6-54.2-54.2h-16.6v-23.4h16.6c4.9-27.6,26.6-49.4,54.2-54.2
					v-14.8h23.4v14.8c27.6,4.9,49.4,26.6,54.2,54.2h16.6V225.8z"/>
				<path class="st25" d="M217.7,182.8v19.7h19.7C234,193.4,226.8,186.1,217.7,182.8z"/>
				<path class="st25" d="M194.3,182.8c-9.1,3.4-16.3,10.6-19.7,19.7h19.7V182.8z"/>
				<path class="st25" d="M217.7,245.5c9.1-3.4,16.3-10.6,19.7-19.7h-19.7V245.5z"/>
				<path class="st25" d="M174.6,225.8c3.4,9.1,10.6,16.3,19.7,19.7v-19.7H174.6z"/>
				<path class="st25" d="M206,180.7c4.1,0,8.1,0.7,11.7,2.1v-34.5c-3.8-0.7-7.7-1-11.7-1c-4,0-7.9,0.4-11.7,1v34.5
					C197.9,181.4,201.9,180.7,206,180.7z"/>
				<path class="st25" d="M206,247.6c-4.1,0-8.1-0.7-11.7-2.1v34.5c3.8,0.7,7.7,1,11.7,1c4,0,7.9-0.4,11.7-1v-34.5
					C214,246.9,210.1,247.6,206,247.6z"/>
				<path class="st25" d="M217.7,148.2v-14.8h-23.4v14.8c3.8-0.7,7.7-1,11.7-1C210,147.2,213.9,147.5,217.7,148.2z"/>
				<path class="st25" d="M204.8,202.4c0.3,0,0.7-0.1,1.1-0.1s0.7,0,1.1,0.1h10.8v-19.7c-3.6-1.4-7.6-2.1-11.7-2.1
					c-4.1,0-8.1,0.7-11.7,2.1v19.7H204.8z"/>
				<path class="st25" d="M194.3,280.1v14.8h23.4v-14.8c-3.8,0.7-7.7,1-11.7,1C202,281.1,198.1,280.7,194.3,280.1z"/>
				<path class="st25" d="M194.3,225.8v19.7c3.6,1.4,7.6,2.1,11.7,2.1c4.1,0,8.1-0.7,11.7-2.1v-19.7H194.3z"/>
				<path class="st25" d="M271.9,202.4h-34.5c1.4,3.6,2.1,7.6,2.1,11.7s-0.7,8.1-2.1,11.7h34.5c0.7-3.8,1-7.7,1-11.7
					S272.6,206.2,271.9,202.4z"/>
				<path class="st25" d="M172.5,214.1c0-4.1,0.7-8.1,2.1-11.7h-34.5c-0.7,3.8-1,7.7-1,11.7s0.4,7.9,1,11.7h34.5
					C173.2,222.2,172.5,218.2,172.5,214.1z"/>
				<path class="st25" d="M194.3,202.4h-19.7c-1.4,3.6-2.1,7.6-2.1,11.7s0.7,8.1,2.1,11.7h19.7V202.4z"/>
				<path class="st25" d="M272.9,214.1c0,4-0.4,7.9-1,11.7h16.6v-23.4h-16.6C272.6,206.2,272.9,210.1,272.9,214.1z"/>
				<path class="st25" d="M140.1,202.4h-16.6v23.4h16.6c-0.7-3.8-1-7.7-1-11.7S139.4,206.2,140.1,202.4z"/>
				<path class="st25" d="M217.7,225.8h19.7c1.4-3.6,2.1-7.6,2.1-11.7s-0.7-8.1-2.1-11.7h-19.7V225.8z"/>
				<path class="st25" d="M216.3,212.8c0,5.8-4.7,10.4-10.4,10.4s-10.4-4.7-10.4-10.4c0-5.4,4.1-9.8,9.4-10.4h-10.5v23.4h23.4v-23.4
					h-10.8C212.2,203,216.3,207.4,216.3,212.8z"/>
			</g>
		</g>
	</g>
</g>
</svg>
