<svg id="website-gears" xmlns="http://www.w3.org/2000/svg" viewBox="0 0 182.15 187.94"><defs><style>.cls-1{fill:#2f3a4c;}</style></defs><title>gear-4-dark-blue</title><g id="dark-blue"><g id="gear-4-dark-blue"><path class="cls-1" d="M306.16,219.06l-16.79-.32a0.8,0.8,0,0,1-.75-0.69,76.75,76.75,0,0,0-5-19.31,0.81,0.81,0,0,1,.31-1l14.39-8.95a1.22,1.22,0,0,0,.41-1.62l-7.23-12.93a1.15,1.15,0,0,0-1-.59,1.17,1.17,0,0,0-.57.15l-14.71,8.4a0.76,0.76,0,0,1-.38.09,0.74,0.74,0,0,1-.6-0.31,75.23,75.23,0,0,0-13.7-14.13,0.81,0.81,0,0,1-.21-1l8.13-15.17a1.21,1.21,0,0,0-.42-1.61L255.5,142.6a1.06,1.06,0,0,0-.57-0.16,1.19,1.19,0,0,0-1,.57l-8.68,14.86a0.75,0.75,0,0,1-.66.39,0.71,0.71,0,0,1-.28-0.07A70.9,70.9,0,0,0,225.6,153a0.79,0.79,0,0,1-.67-0.78L224.6,134.9a1.16,1.16,0,0,0-1.14-1.16H209a1.17,1.17,0,0,0-1.16,1.16l-0.32,17.33a0.79,0.79,0,0,1-.67.78,70.8,70.8,0,0,0-18.71,5.17,0.75,0.75,0,0,1-1-.32L178.51,143a1.17,1.17,0,0,0-1-.57,1.07,1.07,0,0,0-.57.16l-12.53,7.46a1.24,1.24,0,0,0-.43,1.61l8.14,15.17a0.82,0.82,0,0,1-.21,1A74.64,74.64,0,0,0,158.22,182a0.75,0.75,0,0,1-.61.31,0.73,0.73,0,0,1-.37-0.09l-14.72-8.4a1.16,1.16,0,0,0-1.56.44l-7.22,12.92a1.2,1.2,0,0,0,.4,1.62l14.39,8.95a0.83,0.83,0,0,1,.32,1,76.63,76.63,0,0,0-5,19.31,0.78,0.78,0,0,1-.75.69l-16.79.32a1.16,1.16,0,0,0-1.13,1.18v14.93a1.17,1.17,0,0,0,1.13,1.19l16.79,0.32a0.78,0.78,0,0,1,.75.7,76.72,76.72,0,0,0,5,19.31,0.81,0.81,0,0,1-.32,1l-14.39,9a1.18,1.18,0,0,0-.4,1.6L141,281.14a1.16,1.16,0,0,0,1,.59,1.1,1.1,0,0,0,.56-0.14l14.72-8.38a0.67,0.67,0,0,1,.37-0.11,0.78,0.78,0,0,1,.61.31,75.07,75.07,0,0,0,13.7,14.15,0.8,0.8,0,0,1,.21,1L164,303.75a1.23,1.23,0,0,0,.43,1.61L177,312.81a1.07,1.07,0,0,0,.57.16,1.15,1.15,0,0,0,1-.57l8.68-14.84a0.74,0.74,0,0,1,.66-0.39,0.81,0.81,0,0,1,.3.06,70.73,70.73,0,0,0,18.72,5.18,0.78,0.78,0,0,1,.67.77l0.32,17.33a1.17,1.17,0,0,0,1.16,1.17h14.46a1.16,1.16,0,0,0,1.14-1.17l0.33-17.32a0.78,0.78,0,0,1,.67-0.77,70.83,70.83,0,0,0,18.72-5.18,0.73,0.73,0,0,1,.94.32l8.68,14.84a1.16,1.16,0,0,0,1,.57,1.05,1.05,0,0,0,.57-0.16L268,305.35a1.21,1.21,0,0,0,.42-1.6l-8.13-15.18a0.79,0.79,0,0,1,.21-1,75.08,75.08,0,0,0,13.7-14.15,0.76,0.76,0,0,1,.6-0.31,0.69,0.69,0,0,1,.38.11l14.71,8.38a1.13,1.13,0,0,0,.57.14,1.15,1.15,0,0,0,1-.59l7.23-12.93a1.19,1.19,0,0,0-.41-1.6l-14.4-9a0.79,0.79,0,0,1-.3-1,76.58,76.58,0,0,0,5-19.31,0.81,0.81,0,0,1,.75-0.7l16.79-.32a1.17,1.17,0,0,0,1.13-1.19V220.24A1.16,1.16,0,0,0,306.16,219.06ZM216.22,278.3c-27.08,0-49-22.65-49-50.59s22-50.6,49-50.6,49.06,22.67,49.06,50.6S243.31,278.3,216.22,278.3Z" transform="translate(-125.15 -133.74)"/></g></g></svg>