<svg id="website-gears" xmlns="http://www.w3.org/2000/svg" viewBox="0 0 310.64 310.64"><defs><style>.cls-1{fill:#2f3a4c;}</style></defs><title>gear-3-dark-blue</title><g id="dark-blue"><g id="gear-3-dark-blue"><path class="cls-1" d="M50.66,238.4V189.86L97.38,185a145.26,145.26,0,0,1,11.53-27.3L79.18,121.3l34-34,36.4,29.73a125.8,125.8,0,0,1,27.3-11.53l4.85-46.72h48.54l4.85,46.72a145.26,145.26,0,0,1,27.3,11.53l36.4-29.73,34,34-29.73,36.4A145.26,145.26,0,0,1,314.58,185l46.72,4.85V238.4l-46.72,4.85a125.8,125.8,0,0,1-11.53,27.3L332.78,307l-34,34L262.4,311.2a145.26,145.26,0,0,1-27.3,11.53l-4.85,46.72H181.71l-4.85-46.72a125.8,125.8,0,0,1-27.3-11.53l-36.4,29.73-34-34,29.73-36.4a125.8,125.8,0,0,1-11.53-27.3Zm110.42-24.27A44.54,44.54,0,0,0,206,259a44.54,44.54,0,0,0,44.9-44.9,44.54,44.54,0,0,0-44.9-44.9,44.54,44.54,0,0,0-44.9,44.9h0Z" transform="translate(-50.66 -58.81)"/></g></g></svg>