<svg id="website-gears" xmlns="http://www.w3.org/2000/svg" viewBox="0 0 267.84 267.84"><defs><style>.cls-1{fill:#4c412c;}</style></defs><title>gear-1-dark-brown</title><g id="dark-brown"><g id="gear-1-dark-brown"><path class="cls-1" d="M339.07,228.86a138.77,138.77,0,0,0,.83-14.73,135,135,0,0,0-.85-14.75l-36.6-13a99.85,99.85,0,0,0-8.6-20.86l16.64-35a135.31,135.31,0,0,0-20.88-20.87l-35,16.64a100.53,100.53,0,0,0-20.86-8.6l-13-36.6a127.72,127.72,0,0,0-29.5,0l-13,36.59a100.41,100.41,0,0,0-20.84,8.6l-35-16.64a135.12,135.12,0,0,0-20.87,20.87l16.64,35a100.08,100.08,0,0,0-8.6,20.86l-36.6,13a127.73,127.73,0,0,0,0,29.5l36.61,13a100,100,0,0,0,8.6,20.86l-16.64,35a134.62,134.62,0,0,0,20.87,20.88l35-16.64a100.4,100.4,0,0,0,20.86,8.6l13,36.62a138.67,138.67,0,0,0,14.73.83,135,135,0,0,0,14.75-.85l13-36.62a100.21,100.21,0,0,0,20.86-8.6l35,16.64a134.81,134.81,0,0,0,20.88-20.88l-16.64-35a100.78,100.78,0,0,0,8.6-20.86Zm-50.59-3H271.9a67,67,0,0,1-54.22,54.22v14.83h-23.4V280.05a67,67,0,0,1-54.22-54.22H123.48v-23.4h16.58a67,67,0,0,1,54.22-54.22V133.38h23.4v14.83a67,67,0,0,1,54.22,54.22h16.58v23.4Z" transform="translate(-72.06 -80.21)"/><path class="cls-1" d="M217.68,182.76v19.67h19.67A33.58,33.58,0,0,0,217.68,182.76Z" transform="translate(-72.06 -80.21)"/><path class="cls-1" d="M194.28,182.76a33.58,33.58,0,0,0-19.67,19.67h19.67V182.76Z" transform="translate(-72.06 -80.21)"/><path class="cls-1" d="M217.68,245.5a33.58,33.58,0,0,0,19.67-19.67H217.68V245.5Z" transform="translate(-72.06 -80.21)"/><path class="cls-1" d="M174.6,225.83a33.58,33.58,0,0,0,19.67,19.67V225.83H174.6Z" transform="translate(-72.06 -80.21)"/><path class="cls-1" d="M206,180.65a33.4,33.4,0,0,1,11.7,2.11V148.21a66.33,66.33,0,0,0-23.4,0v34.55A33.4,33.4,0,0,1,206,180.65Z" transform="translate(-72.06 -80.21)"/><path class="cls-1" d="M206,247.61a33.4,33.4,0,0,1-11.7-2.11v34.55a66.33,66.33,0,0,0,23.4,0V245.5A33.4,33.4,0,0,1,206,247.61Z" transform="translate(-72.06 -80.21)"/><path class="cls-1" d="M217.68,148.21V133.38h-23.4v14.83A66.33,66.33,0,0,1,217.68,148.21Z" transform="translate(-72.06 -80.21)"/><path class="cls-1" d="M204.78,202.43a10.5,10.5,0,0,1,2.12,0h10.78V182.76a33.55,33.55,0,0,0-23.4,0v19.67h10.5Z" transform="translate(-72.06 -80.21)"/><path class="cls-1" d="M194.28,280.05v14.83h23.4V280.05A66.33,66.33,0,0,1,194.28,280.05Z" transform="translate(-72.06 -80.21)"/><path class="cls-1" d="M194.28,225.83V245.5a33.55,33.55,0,0,0,23.4,0V225.83h-23.4Z" transform="translate(-72.06 -80.21)"/><path class="cls-1" d="M271.9,202.43H237.35a33.55,33.55,0,0,1,0,23.4H271.9A66.33,66.33,0,0,0,271.9,202.43Z" transform="translate(-72.06 -80.21)"/><path class="cls-1" d="M172.5,214.13a33.4,33.4,0,0,1,2.11-11.7H140.06a66.33,66.33,0,0,0,0,23.4H174.6A33.4,33.4,0,0,1,172.5,214.13Z" transform="translate(-72.06 -80.21)"/><path class="cls-1" d="M194.28,202.43H174.6a33.55,33.55,0,0,0,0,23.4h19.67v-23.4Z" transform="translate(-72.06 -80.21)"/><path class="cls-1" d="M272.94,214.13a67.29,67.29,0,0,1-1,11.7h16.58v-23.4H271.9A67.29,67.29,0,0,1,272.94,214.13Z" transform="translate(-72.06 -80.21)"/><path class="cls-1" d="M140.06,202.43H123.48v23.4h16.58A66.33,66.33,0,0,1,140.06,202.43Z" transform="translate(-72.06 -80.21)"/><path class="cls-1" d="M217.68,225.83h19.67a33.55,33.55,0,0,0,0-23.4H217.68v23.4Z" transform="translate(-72.06 -80.21)"/><path class="cls-1" d="M216.25,212.79a10.42,10.42,0,1,1-11.47-10.36h-10.5v23.4h23.4v-23.4H206.89A10.42,10.42,0,0,1,216.25,212.79Z" transform="translate(-72.06 -80.21)"/></g></g></svg>