<?xml version="1.0" encoding="utf-8"?>
<!-- Generator: Adobe Illustrator 19.2.0, SVG Export Plug-In . SVG Version: 6.00 Build 0)  -->
<svg version="1.1" id="website-gears" xmlns="http://www.w3.org/2000/svg" xmlns:xlink="http://www.w3.org/1999/xlink" x="0px"
	 y="0px" viewBox="0 0 385 385" style="enable-background:new 0 0 385 385;" xml:space="preserve">
<style type="text/css">
	.st0{fill:#BCCBE4;}
</style>
<title>gear-5-light-blue</title>
<g id="light-blue">
	<g id="gear-5-light-blue">
		<g id="svg_3">
			<path id="svg_4" class="st0" d="M86.5,33.7l14.8,43.6l0,0C93.6,83.5,86.4,90.4,80,98l0,0L37,82L20.2,110l34.7,29.8H55
				c-3.7,9.2-6.5,18.7-8.3,28.4v-0.1l-45.8,8L0,208.4l45.4,8.1c1.3,9.6,3.6,19.1,6.9,28.3l0,0L16,274.5l15.4,28l43.9-15.8l0,0
				c6,7.6,12.7,14.6,20.1,20.8l-17,43.5l27.5,16.2l30.6-35.5v-0.1c9.1,3.5,18.5,6.1,28.1,7.7v0.1l6.8,45.7l32.2,0.1l9.1-45.7l0,0
				c9.7-1.6,19.2-4.1,28.5-7.6l0,0l28.8,35.5l28.2-16.1l-14.8-43.6l0,0c7.7-6.2,14.8-13.1,21.3-20.7l43.1,16l16.8-28l-34.7-29.8
				c3.7-9.1,6.4-18.6,8.3-28.3l46.6-8v-32.3l-45.4-8.1c-1.3-9.7-3.6-19.1-6.9-28.3l36.3-29.7l-15.4-28l-43.9,15.9
				c-6-7.6-12.8-14.5-20.2-20.7l17-43.5L279,17.8l-30.6,35.5c-9.1-3.5-18.5-6-28.1-7.6l-6.8-45.7L181.3,0l-9.2,45.7
				c-9.7,1.6-19.2,4.1-28.5,7.5l0,0l-28.8-35.5L86.5,33.7L86.5,33.7z"/>
		</g>
	</g>
</g>
</svg>
