<?xml version="1.0" encoding="utf-8"?>
<!-- Generator: Adobe Illustrator 19.2.0, SVG Export Plug-In . SVG Version: 6.00 Build 0)  -->
<svg version="1.1" id="website-gears" xmlns="http://www.w3.org/2000/svg" xmlns:xlink="http://www.w3.org/1999/xlink" x="0px"
	 y="0px" viewBox="0 0 267.8 267.8" style="enable-background:new 0 0 267.8 267.8;" xml:space="preserve">
<style type="text/css">
	.st0{fill:#BCCBE1;}
</style>
<title>gear-1-light-brown</title>
<g id="light-brown">
	<g id="gear-1-light-brown">
		<path class="st0" d="M267,148.6c0.5-4.9,0.8-9.8,0.8-14.7c0-4.9-0.3-9.9-0.9-14.8l-36.6-13c-2.1-7.3-5-14.3-8.6-20.9l16.6-35
			c-6.2-7.7-13.2-14.7-20.9-20.9l-35,16.6c-6.6-3.6-13.6-6.5-20.9-8.6l-13-36.6c-9.8-1.1-19.7-1.1-29.5,0l-13,36.6
			c-7.2,2.1-14.2,5-20.8,8.6l-35-16.6c-7.7,6.2-14.7,13.2-20.9,20.9l16.6,35c-3.6,6.6-6.5,13.6-8.6,20.9l-36.6,13
			c-1.1,9.8-1.1,19.7,0,29.5l36.6,13c2.1,7.3,5,14.3,8.6,20.9l-16.6,35c6.2,7.7,13.2,14.7,20.9,20.9l35-16.6
			c6.6,3.6,13.6,6.5,20.9,8.6l13,36.6c4.9,0.5,9.8,0.8,14.7,0.8c4.9,0,9.9-0.3,14.8-0.9l13-36.6c7.3-2.1,14.3-5,20.9-8.6l35,16.6
			c7.7-6.2,14.7-13.2,20.9-20.9l-16.6-35c3.6-6.6,6.5-13.6,8.6-20.9L267,148.6z M216.4,145.6h-16.6c-4.9,27.7-26.6,49.3-54.2,54.2
			v14.8h-23.4v-14.9c-27.7-4.9-49.3-26.6-54.2-54.2H51.4v-23.4H68c4.9-27.7,26.6-49.3,54.2-54.2V53.2h23.4V68
			c27.7,4.9,49.3,26.6,54.2,54.2h16.6L216.4,145.6L216.4,145.6z"/>
		<path class="st0" d="M145.6,102.5v19.7h19.7C161.9,113.1,154.7,106,145.6,102.5z"/>
		<path class="st0" d="M122.2,102.5c-9.1,3.4-16.3,10.6-19.7,19.7h19.7V102.5z"/>
		<path class="st0" d="M145.6,165.3c9.1-3.4,16.3-10.6,19.7-19.7h-19.7V165.3z"/>
		<path class="st0" d="M102.5,145.6c3.4,9.1,10.6,16.3,19.7,19.7v-19.7H102.5z"/>
		<path class="st0" d="M133.9,100.4c4,0,8,0.7,11.7,2.1V68c-7.7-1.4-15.7-1.4-23.4,0v34.6C126,101.2,129.9,100.4,133.9,100.4z"/>
		<path class="st0" d="M133.9,167.4c-4,0-8-0.7-11.7-2.1v34.5c7.7,1.4,15.7,1.4,23.4,0v-34.5C141.9,166.7,137.9,167.4,133.9,167.4z"
			/>
		<path class="st0" d="M145.6,68V53.2h-23.4V68C130,66.6,137.9,66.6,145.6,68z"/>
		<path class="st0" d="M132.7,122.2c0.7-0.1,1.4-0.1,2.1,0h10.8v-19.7c-7.5-2.8-15.9-2.8-23.4,0v19.7H132.7z"/>
		<path class="st0" d="M122.2,199.8v14.8h23.4v-14.8C137.9,201.2,130,201.2,122.2,199.8z"/>
		<path class="st0" d="M122.2,145.6v19.7c7.5,2.8,15.9,2.8,23.4,0v-19.7H122.2z"/>
		<path class="st0" d="M199.8,122.2h-34.5c2.8,7.5,2.8,15.9,0,23.4h34.5C201.2,137.9,201.2,130,199.8,122.2z"/>
		<path class="st0" d="M100.4,133.9c0-4,0.7-8,2.1-11.7H68c-1.4,7.7-1.4,15.7,0,23.4h34.5C101.1,141.9,100.4,137.9,100.4,133.9z"/>
		<path class="st0" d="M122.2,122.2h-19.7c-2.8,7.5-2.8,15.9,0,23.4h19.7L122.2,122.2L122.2,122.2z"/>
		<path class="st0" d="M200.9,133.9c0,3.9-0.3,7.8-1,11.7h16.6v-23.4h-16.6C200.5,126.1,200.9,130,200.9,133.9z"/>
		<path class="st0" d="M68,122.2H51.4v23.4H68C66.6,137.9,66.6,130,68,122.2z"/>
		<path class="st0" d="M145.6,145.6h19.7c2.8-7.5,2.8-15.9,0-23.4h-19.7V145.6z"/>
		<path class="st0" d="M144.2,132.6c0,5.8-4.7,10.4-10.4,10.4s-10.4-4.7-10.4-10.4c0-5.4,4-9.8,9.4-10.4h-10.5v23.4h23.4v-23.4
			h-10.8C140.1,122.8,144.2,127.2,144.2,132.6z"/>
	</g>
</g>
</svg>
