<svg id="website-gears" xmlns="http://www.w3.org/2000/svg" viewBox="0 0 267.84 267.84"><defs><style>.cls-1{fill:#bccbe1;}</style></defs><title>gear-1-light-blue</title><g id="light-blue"><g id="gear-2-light-blue"><path class="cls-1" d="M302.45,186.36a99.84,99.84,0,0,0-8.6-20.86l16.64-35a135.31,135.31,0,0,0-20.88-20.87l-35,16.64a100.53,100.53,0,0,0-20.86-8.6l-13-36.6a127.73,127.73,0,0,0-29.5,0l-13,36.59a100.41,100.41,0,0,0-20.84,8.6l-35-16.64a135.12,135.12,0,0,0-20.87,20.87l16.64,35a100.08,100.08,0,0,0-8.6,20.86l-36.6,13a127.73,127.73,0,0,0,0,29.5l36.61,13a100,100,0,0,0,8.6,20.86l-16.64,35a134.62,134.62,0,0,0,20.87,20.88l35-16.64a100.4,100.4,0,0,0,20.86,8.6l13,36.62a138.67,138.67,0,0,0,14.73.83,135,135,0,0,0,14.75-.85l13-36.62a100.2,100.2,0,0,0,20.86-8.6l35,16.64a134.81,134.81,0,0,0,20.88-20.88l-16.64-35a100.78,100.78,0,0,0,8.6-20.86l36.62-13a138.76,138.76,0,0,0,.83-14.73,135,135,0,0,0-.85-14.75ZM206,281.09a67,67,0,1,1,67-67A67,67,0,0,1,206,281.09Z" transform="translate(-72.06 -80.21)"/></g></g></svg>